<?xml version="1.0" standalone="no"?><!DOCTYPE svg PUBLIC "-//W3C//DTD SVG 1.1//EN" "http://www.w3.org/Graphics/SVG/1.1/DTD/svg11.dtd"><svg height="1024" node-id="1" sillyvg="true" template-height="1024" template-width="1024" version="1.1" viewBox="0 0 1024 1024" width="1024" xmlns="http://www.w3.org/2000/svg" xmlns:xlink="http://www.w3.org/1999/xlink"><defs node-id="213"><clipPath id="master_svg0_45_2236" node-id="3"><path d="M 0.00 0.00 L 1024.00 0.00 L 1024.00 1024.00 L 0.00 1024.00 Z" fill="#000000" fill-rule="nonzero" node-id="216" stroke="none" target-height="1024" target-width="1024" target-x="0" target-y="0"></path></clipPath></defs><g node-id="736"><g clip-path="url(#master_svg0_45_2236)" group-id="1" id="sillyvg_g_1" node-id="222"><path d="M 929.90 737.60 L 929.00 418.40 L 802.40 344.90 L 796.10 348.60 L 796.10 255.80 L 795.90 254.50 L 794.60 252.20 L 792.30 250.80 L 789.60 250.80 L 788.30 251.30 L 325.60 516.30 L 325.40 437.60 L 433.80 375.00 L 440.40 370.90 L 446.80 366.50 L 453.20 361.50 L 459.50 356.20 L 467.50 348.60 L 475.20 340.40 L 482.60 331.60 L 489.50 322.40 L 496.10 312.90 L 502.10 302.90 L 507.70 292.60 L 512.80 282.20 L 517.20 271.60 L 521.20 260.80 L 524.40 250.10 L 526.90 239.40 L 528.40 231.30 L 529.50 223.30 L 530.10 215.50 L 530.30 207.80 L 530.00 199.90 L 529.40 194.10 L 527.80 184.50 L 524.60 173.70 L 521.10 166.10 L 518.60 161.80 L 515.40 157.40 L 509.90 151.60 L 506.90 149.00 L 501.30 145.20 L 445.10 112.60 L 444.50 107.20 L 442.80 97.20 L 440.20 87.90 L 437.00 79.50 L 434.60 74.90 L 429.40 66.80 L 426.50 63.40 L 422.10 59.00 L 417.30 55.20 L 365.80 24.90 L 360.70 22.40 L 355.30 20.30 L 349.50 18.90 L 343.40 17.90 L 337.40 17.60 L 331.00 17.90 L 324.20 18.80 L 317.00 20.40 L 310.20 22.40 L 303.00 25.10 L 295.50 28.50 L 287.60 32.80 L 274.00 41.60 L 260.70 52.20 L 252.30 59.90 L 244.20 68.30 L 236.30 77.30 L 228.80 86.70 L 221.80 96.50 L 215.10 106.70 L 208.90 117.20 L 203.20 128.00 L 198.00 139.00 L 193.30 150.20 L 189.30 161.40 L 185.80 172.70 L 180.10 173.40 L 174.20 174.70 L 167.90 176.60 L 161.70 178.90 L 155.30 181.90 L 148.50 185.50 L 142.00 189.50 L 135.60 193.90 L 129.30 198.80 L 123.00 204.20 L 115.10 211.70 L 107.50 219.80 L 100.10 228.50 L 93.20 237.70 L 86.80 247.20 L 80.70 257.00 L 75.10 267.20 L 70.20 277.60 L 65.70 288.10 L 61.80 298.80 L 58.60 309.40 L 56.10 320.00 L 54.60 328.10 L 53.50 336.00 L 52.90 343.70 L 52.70 351.30 L 53.00 359.00 L 54.60 372.40 L 48.40 379.70 L 42.60 387.40 L 37.10 395.50 L 32.10 403.90 L 27.60 412.50 L 23.60 421.40 L 20.10 430.40 L 17.10 439.40 L 14.80 448.40 L 13.50 455.30 L 11.90 468.50 L 11.70 474.90 L 12.00 481.20 L 13.50 492.10 L 16.40 501.50 L 20.30 509.40 L 22.50 512.70 L 27.80 518.50 L 33.50 522.60 L 70.70 544.30 L 77.00 550.30 L 80.40 552.60 L 84.10 554.60 L 88.00 556.10 L 92.10 557.20 L 96.40 557.90 L 104.40 558.00 L 112.70 556.70 L 121.20 554.10 L 125.50 552.40 L 134.50 547.80 L 315.00 443.50 L 315.20 525.30 L 315.40 526.70 L 316.70 529.00 L 317.80 529.80 L 320.40 530.50 L 323.00 529.80 L 464.20 448.90 L 464.20 536.20 L 330.10 613.60 L 331.00 932.80 L 457.50 1006.30 L 596.50 926.10 L 596.40 896.00 L 624.20 912.10 L 763.20 831.90 L 763.10 801.70 L 790.90 817.80 L 929.90 737.60 Z M 785.70 354.50 L 663.40 425.10 L 663.50 455.20 L 635.70 439.10 L 635.40 439.40 L 635.40 350.90 L 785.70 264.80 L 785.70 354.50 Z M 625.00 356.90 L 625.00 445.40 L 496.80 519.30 L 496.80 549.50 L 474.60 536.60 L 474.60 444.90 L 474.30 443.10 L 625.00 356.90 Z M 941.70 948.90 L 941.60 903.20 L 922.60 901.80 L 922.80 877.00 L 897.40 862.30 L 875.40 872.30 L 865.80 869.60 L 855.60 867.80 L 852.00 851.40 L 816.10 851.50 L 812.70 868.70 L 806.70 869.90 L 795.50 873.30 L 771.00 862.30 L 745.70 877.00 L 745.70 901.80 L 727.30 903.10 L 727.30 948.70 L 746.20 950.10 L 746.00 975.00 L 771.50 989.70 L 799.80 976.80 L 806.00 978.60 L 812.40 979.90 L 816.90 1000.40 L 852.90 1000.50 L 856.70 980.90 L 864.30 979.70 L 871.70 977.80 L 897.80 989.70 L 923.20 975.00 L 923.20 950.10 L 941.70 948.90 Z M 784.50 925.90 L 789.10 920.90 L 792.20 918.50 L 795.90 916.10 L 801.40 913.40 L 807.30 911.00 L 813.80 909.20 L 820.50 907.90 L 827.30 907.20 L 834.20 906.90 L 841.20 907.10 L 848.10 907.90 L 854.70 909.20 L 861.20 911.00 L 867.20 913.30 L 872.80 916.00 L 876.60 918.50 L 879.70 921.00 L 882.30 923.50 L 884.40 926.10 L 882.30 928.60 L 876.70 933.50 L 873.10 935.80 L 867.60 938.60 L 861.60 940.90 L 855.10 942.70 L 848.50 944.00 L 841.60 944.80 L 834.60 945.00 L 827.60 944.80 L 820.80 944.00 L 814.20 942.70 L 807.60 940.90 L 801.70 938.60 L 796.10 935.80 L 792.30 933.40 L 789.20 930.90 L 784.50 925.90 Z M 1012.20 800.00 L 999.20 799.00 L 999.30 782.10 L 982.00 772.00 L 966.90 778.90 L 962.50 777.50 L 953.40 775.80 L 951.00 764.60 L 926.50 764.60 L 924.10 776.40 L 918.00 777.70 L 912.40 779.50 L 895.70 772.00 L 878.40 782.10 L 878.30 799.00 L 865.70 799.90 L 865.80 831.00 L 878.70 831.90 L 878.60 849.00 L 896.00 859.00 L 915.40 850.20 L 924.00 852.40 L 927.00 866.40 L 951.50 866.40 L 954.20 853.00 L 964.40 850.90 L 982.30 859.00 L 999.50 849.00 L 999.60 832.00 L 1012.20 831.20 L 1012.20 800.00 Z M 904.90 815.50 L 906.80 813.30 L 909.30 811.00 L 912.60 808.80 L 916.40 806.90 L 920.40 805.30 L 929.40 803.20 L 938.90 802.50 L 948.30 803.20 L 957.30 805.30 L 961.40 806.90 L 965.10 808.80 L 968.50 811.00 L 971.10 813.30 L 973.00 815.60 L 971.10 817.90 L 968.60 820.10 L 965.30 822.20 L 961.60 824.10 L 957.50 825.70 L 953.10 827.00 L 943.90 828.30 L 939.10 828.50 L 929.60 827.80 L 920.60 825.70 L 916.50 824.10 L 912.80 822.20 L 909.50 820.00 L 906.90 817.80 L 904.90 815.50 Z" fill="#bac1ce" fill-rule="nonzero" group-id="1,2,104" node-id="228" stroke="none" target-height="988.7" target-width="1000.5" target-x="11.7" target-y="17.6"></path><path d="M 80.60 550.00 L 33.40 522.60 L 27.80 518.50 L 22.50 512.70 L 18.20 505.70 L 16.40 501.50 L 13.50 492.10 L 12.60 486.90 L 11.70 474.90 L 12.50 461.90 L 13.40 455.20 L 14.80 448.30 L 17.10 439.30 L 20.10 430.30 L 23.60 421.30 L 27.70 412.40 L 32.20 403.80 L 37.20 395.30 L 42.70 387.20 L 48.60 379.50 L 54.80 372.20 L 102.50 400.50 L 96.30 407.80 L 90.50 415.50 L 85.00 423.60 L 79.90 432.10 L 75.40 440.70 L 71.40 449.60 L 67.80 458.60 L 64.90 467.60 L 62.60 476.60 L 61.20 483.50 L 60.20 490.20 L 59.50 503.20 L 59.80 510.50 L 60.50 516.90 L 61.70 522.70 L 63.20 527.90 L 65.10 532.50 L 67.50 537.10 L 70.30 541.10 L 73.40 544.50 L 76.80 547.50 L 80.60 550.00 Z" fill="#cad0dd" fill-rule="nonzero" group-id="1,3" node-id="234" stroke="none" target-height="177.79999" target-width="90.8" target-x="11.7" target-y="372.2"></path><path d="M 763.10 801.70 L 664.30 744.20 L 663.40 425.10 L 790.10 498.70 L 790.90 817.80 L 763.10 801.70 Z" fill="#416e84" fill-rule="nonzero" group-id="1,4" node-id="239" stroke="none" target-height="392.69998" target-width="127.5" target-x="663.4" target-y="425.1"></path><path d="M 929.00 418.40 L 790.10 498.70 L 663.40 425.10 L 802.40 344.90 L 929.00 418.40 Z" fill="#4c7891" fill-rule="nonzero" group-id="1,5" node-id="244" stroke="none" target-height="153.80002" target-width="265.59998" target-x="663.4" target-y="344.9"></path><path d="M 929.00 418.40 L 929.90 737.60 L 790.90 817.80 L 790.00 498.70 L 929.00 418.40 Z" fill="#37617b" fill-rule="nonzero" group-id="1,6" node-id="249" stroke="none" target-height="399.4" target-width="139.90002" target-x="790" target-y="418.4"></path><path d="M 896.50 461.40 L 896.50 475.90 L 823.40 518.10 L 823.40 503.60 L 896.50 461.40 Z" fill="#d4dae8" fill-rule="nonzero" group-id="1,7" node-id="254" stroke="none" target-height="56.69998" target-width="73.099976" target-x="823.4" target-y="461.4"></path><path d="M 810.50 509.80 L 812.60 509.00 L 814.30 508.80 L 815.70 509.30 L 816.80 510.20 L 817.60 511.80 L 817.90 514.00 L 817.60 516.40 L 816.90 518.90 L 815.70 521.30 L 814.30 523.50 L 812.50 525.40 L 810.50 526.80 L 808.40 527.70 L 806.70 527.80 L 805.30 527.30 L 804.20 526.40 L 803.40 524.80 L 803.10 522.60 L 803.30 520.20 L 804.10 517.70 L 805.20 515.30 L 806.70 513.10 L 808.50 511.20 L 810.50 509.80 Z M 909.40 452.70 L 911.50 451.90 L 913.20 451.70 L 914.60 452.20 L 915.80 453.10 L 916.50 454.60 L 916.80 456.90 L 916.60 459.30 L 915.80 461.80 L 914.70 464.20 L 913.20 466.40 L 911.40 468.30 L 909.40 469.70 L 907.30 470.60 L 905.60 470.70 L 904.20 470.20 L 903.10 469.20 L 902.40 467.70 L 902.00 465.50 L 902.30 463.10 L 903.00 460.60 L 904.20 458.20 L 905.70 456.00 L 907.50 454.10 L 909.40 452.70 Z" fill="#fed57a" fill-rule="nonzero" group-id="1,8" node-id="259" stroke="none" target-height="76.099976" target-width="113.70001" target-x="803.1" target-y="451.7"></path><path d="M 923.00 440.80 L 796.90 513.60 L 796.90 538.70 L 923.10 465.80 L 923.00 440.80 Z M 810.50 526.80 L 808.40 527.70 L 806.70 527.80 L 805.30 527.40 L 804.20 526.40 L 803.40 524.90 L 803.10 522.60 L 803.40 520.20 L 804.10 517.70 L 805.30 515.30 L 806.70 513.10 L 808.50 511.20 L 810.50 509.80 L 812.60 509.00 L 814.30 508.80 L 815.70 509.30 L 816.80 510.30 L 817.60 511.80 L 817.90 514.00 L 817.60 516.40 L 816.90 518.90 L 815.70 521.30 L 814.20 523.50 L 812.50 525.40 L 810.50 526.80 Z M 896.50 475.90 L 823.40 518.10 L 823.40 503.60 L 896.50 461.40 L 896.50 475.90 Z M 909.40 469.70 L 907.30 470.60 L 905.60 470.70 L 904.20 470.20 L 903.10 469.20 L 902.40 467.70 L 902.10 465.40 L 902.30 463.00 L 903.00 460.60 L 904.20 458.20 L 905.70 456.00 L 907.50 454.20 L 909.40 452.70 L 911.50 451.90 L 913.20 451.70 L 914.70 452.20 L 915.80 453.10 L 916.50 454.60 L 916.80 456.90 L 916.60 459.30 L 915.80 461.80 L 914.70 464.20 L 913.20 466.40 L 911.40 468.30 L 909.40 469.70 Z" fill="#4c7891" fill-rule="nonzero" group-id="1,9" node-id="264" stroke="none" target-height="97.900024" target-width="126.19995" target-x="796.9" target-y="440.8"></path><path d="M 896.50 503.60 L 896.50 518.10 L 823.40 560.30 L 823.40 545.80 L 896.50 503.60 Z" fill="#d4dae8" fill-rule="nonzero" group-id="1,10" node-id="269" stroke="none" target-height="56.69998" target-width="73.099976" target-x="823.4" target-y="503.6"></path><path d="M 810.50 552.10 L 812.60 551.20 L 814.30 551.10 L 815.70 551.50 L 816.80 552.50 L 817.60 554.00 L 817.90 556.30 L 817.60 558.70 L 816.90 561.20 L 815.70 563.60 L 814.30 565.80 L 812.50 567.60 L 810.50 569.10 L 808.40 569.90 L 806.70 570.10 L 805.30 569.60 L 804.20 568.60 L 803.40 567.10 L 803.10 564.80 L 803.30 562.40 L 804.10 559.90 L 805.20 557.60 L 806.70 555.40 L 808.50 553.50 L 810.50 552.10 Z M 909.40 495.00 L 911.50 494.10 L 913.20 494.00 L 914.60 494.40 L 915.80 495.40 L 916.50 496.90 L 916.80 499.10 L 916.60 501.50 L 915.80 504.00 L 914.70 506.40 L 913.20 508.60 L 911.40 510.50 L 909.40 512.00 L 907.30 512.80 L 905.60 512.90 L 904.20 512.50 L 903.10 511.50 L 902.40 510.00 L 902.00 507.70 L 902.30 505.30 L 903.00 502.80 L 905.70 498.30 L 907.50 496.40 L 909.40 495.00 Z" fill="#f9607f" fill-rule="nonzero" group-id="1,11" node-id="274" stroke="none" target-height="76.099976" target-width="113.70001" target-x="803.1" target-y="494"></path><path d="M 923.00 483.10 L 796.90 555.90 L 796.90 580.90 L 923.10 508.10 L 923.00 483.10 Z M 810.50 569.10 L 808.40 569.90 L 806.70 570.00 L 805.30 569.60 L 804.20 568.60 L 803.40 567.10 L 803.10 564.80 L 803.40 562.40 L 804.10 559.90 L 805.30 557.60 L 806.70 555.40 L 808.50 553.50 L 810.50 552.00 L 812.60 551.20 L 814.30 551.00 L 815.70 551.50 L 816.80 552.50 L 817.60 554.00 L 817.90 556.20 L 817.60 558.70 L 816.90 561.20 L 815.70 563.60 L 814.20 565.80 L 812.50 567.70 L 810.50 569.10 Z M 896.50 518.20 L 823.40 560.30 L 823.40 545.80 L 896.50 503.60 L 896.50 518.20 Z M 909.40 511.90 L 907.30 512.80 L 905.60 512.90 L 904.20 512.40 L 903.10 511.50 L 902.40 510.00 L 902.10 507.70 L 902.30 505.30 L 903.00 502.80 L 904.20 500.50 L 905.70 498.30 L 907.50 496.40 L 909.40 495.00 L 911.50 494.10 L 913.20 494.00 L 914.70 494.40 L 915.80 495.40 L 916.50 496.90 L 916.80 499.20 L 916.60 501.60 L 915.80 504.00 L 914.70 506.40 L 913.20 508.60 L 911.40 510.50 L 909.40 511.90 Z" fill="#4c7891" fill-rule="nonzero" group-id="1,12" node-id="279" stroke="none" target-height="97.80002" target-width="126.19995" target-x="796.9" target-y="483.1"></path><path d="M 896.50 545.90 L 896.50 560.40 L 823.40 602.60 L 823.40 588.10 L 896.50 545.90 Z" fill="#d4dae8" fill-rule="nonzero" group-id="1,13" node-id="284" stroke="none" target-height="56.69995" target-width="73.099976" target-x="823.4" target-y="545.9"></path><path d="M 810.50 594.30 L 812.60 593.40 L 814.30 593.30 L 815.70 593.80 L 816.80 594.70 L 817.60 596.20 L 817.90 598.50 L 817.60 600.90 L 816.90 603.40 L 815.70 605.80 L 814.30 608.00 L 812.50 609.90 L 810.50 611.30 L 808.40 612.20 L 806.70 612.30 L 805.30 611.80 L 804.20 610.80 L 803.40 609.30 L 803.10 607.10 L 803.30 604.70 L 804.10 602.20 L 805.20 599.80 L 806.70 597.60 L 808.50 595.70 L 810.50 594.30 Z M 909.40 537.20 L 911.50 536.30 L 913.20 536.20 L 914.60 536.60 L 915.80 537.60 L 916.50 539.10 L 916.80 541.40 L 916.60 543.80 L 915.80 546.30 L 914.70 548.70 L 913.20 550.90 L 911.40 552.80 L 909.40 554.20 L 907.30 555.10 L 905.60 555.20 L 904.20 554.70 L 903.10 553.70 L 902.40 552.20 L 902.00 549.90 L 902.30 547.60 L 903.00 545.10 L 904.20 542.70 L 905.70 540.50 L 907.50 538.60 L 909.40 537.20 Z" fill="#9ad898" fill-rule="nonzero" group-id="1,14" node-id="289" stroke="none" target-height="76.099976" target-width="113.70001" target-x="803.1" target-y="536.2"></path><path d="M 923.00 525.30 L 796.90 598.10 L 796.90 623.20 L 923.10 550.30 L 923.00 525.30 Z M 810.50 611.30 L 808.40 612.20 L 806.70 612.30 L 805.30 611.80 L 804.20 610.80 L 803.40 609.30 L 803.10 607.10 L 803.40 604.70 L 804.10 602.20 L 805.30 599.80 L 806.70 597.60 L 808.50 595.70 L 810.50 594.30 L 812.60 593.40 L 814.30 593.30 L 815.70 593.80 L 816.80 594.70 L 817.60 596.20 L 817.90 598.50 L 817.60 600.90 L 816.90 603.40 L 815.70 605.80 L 814.20 608.00 L 812.50 609.90 L 810.50 611.30 Z M 896.50 560.40 L 823.40 602.60 L 823.40 588.10 L 896.50 545.80 L 896.50 560.40 Z M 909.40 554.20 L 907.30 555.10 L 905.60 555.20 L 904.20 554.70 L 903.10 553.70 L 902.40 552.20 L 902.10 549.90 L 902.30 547.50 L 903.00 545.00 L 904.20 542.70 L 905.70 540.50 L 907.50 538.60 L 909.40 537.20 L 911.50 536.30 L 913.20 536.20 L 914.70 536.60 L 915.80 537.60 L 916.50 539.10 L 916.80 541.40 L 916.60 543.80 L 915.80 546.30 L 914.70 548.70 L 913.20 550.90 L 911.40 552.80 L 909.40 554.20 Z" fill="#4c7891" fill-rule="nonzero" group-id="1,15" node-id="294" stroke="none" target-height="97.900024" target-width="126.19995" target-x="796.9" target-y="525.3"></path><path d="M 896.50 588.10 L 896.50 602.60 L 823.40 644.80 L 823.40 630.30 L 896.50 588.10 Z" fill="#d4dae8" fill-rule="nonzero" group-id="1,16" node-id="299" stroke="none" target-height="56.700012" target-width="73.099976" target-x="823.4" target-y="588.1"></path><path d="M 810.50 636.50 L 812.60 635.70 L 814.30 635.60 L 815.70 636.00 L 816.80 637.00 L 817.60 638.50 L 817.90 640.80 L 817.60 643.10 L 816.90 645.60 L 815.70 648.00 L 812.50 652.10 L 810.50 653.50 L 808.40 654.40 L 806.70 654.50 L 805.30 654.10 L 804.20 653.10 L 803.40 651.60 L 803.10 649.30 L 803.30 646.90 L 804.10 644.40 L 805.20 642.00 L 806.70 639.90 L 808.50 638.00 L 810.50 636.50 Z M 909.40 579.40 L 911.50 578.60 L 913.20 578.40 L 914.60 578.90 L 915.80 579.80 L 916.50 581.40 L 916.80 583.60 L 916.60 586.00 L 915.80 588.50 L 914.70 590.90 L 913.20 593.10 L 911.40 595.00 L 909.40 596.40 L 907.30 597.30 L 905.60 597.40 L 904.20 597.00 L 903.10 596.00 L 902.40 594.50 L 902.00 592.20 L 902.30 589.80 L 903.00 587.30 L 904.20 584.90 L 905.70 582.70 L 907.50 580.80 L 909.40 579.40 Z" fill="#748bfd" fill-rule="nonzero" group-id="1,17" node-id="304" stroke="none" target-height="76.099976" target-width="113.70001" target-x="803.1" target-y="578.4"></path><path d="M 923.00 567.60 L 796.90 640.40 L 796.90 665.40 L 923.10 592.50 L 923.00 567.60 Z M 810.50 653.60 L 808.40 654.40 L 806.70 654.50 L 805.30 654.10 L 804.20 653.10 L 803.40 651.60 L 803.10 649.30 L 803.40 646.90 L 804.10 644.40 L 805.30 642.00 L 806.70 639.90 L 808.50 638.00 L 810.50 636.50 L 812.60 635.70 L 814.30 635.50 L 815.70 636.00 L 816.80 637.00 L 817.60 638.50 L 817.90 640.70 L 817.60 643.10 L 816.90 645.60 L 815.70 648.00 L 814.20 650.20 L 812.50 652.10 L 810.50 653.60 Z M 896.50 602.60 L 823.40 644.80 L 823.40 630.30 L 896.50 588.10 L 896.50 602.60 Z M 909.40 596.40 L 907.30 597.30 L 905.60 597.40 L 904.20 596.90 L 903.10 596.00 L 902.40 594.50 L 902.10 592.20 L 902.30 589.80 L 903.00 587.30 L 904.20 584.90 L 905.70 582.70 L 907.50 580.90 L 909.40 579.50 L 911.50 578.60 L 913.20 578.40 L 914.70 578.90 L 915.80 579.80 L 916.50 581.30 L 916.80 583.60 L 916.60 586.00 L 914.70 590.90 L 913.20 593.10 L 911.40 595.00 L 909.40 596.40 Z" fill="#4c7891" fill-rule="nonzero" group-id="1,18" node-id="309" stroke="none" target-height="97.80005" target-width="126.19995" target-x="796.9" target-y="567.6"></path><path d="M 896.50 630.40 L 896.50 644.90 L 823.40 687.10 L 823.40 672.50 L 896.50 630.40 Z" fill="#d4dae8" fill-rule="nonzero" group-id="1,19" node-id="314" stroke="none" target-height="56.69995" target-width="73.099976" target-x="823.4" target-y="630.4"></path><path d="M 810.50 678.80 L 812.60 677.90 L 814.30 677.80 L 815.70 678.20 L 816.80 679.20 L 817.60 680.70 L 817.90 683.00 L 817.60 685.40 L 815.70 690.30 L 814.30 692.50 L 812.50 694.40 L 810.50 695.80 L 808.40 696.60 L 806.70 696.80 L 805.30 696.30 L 804.20 695.30 L 803.40 693.80 L 803.10 691.50 L 803.30 689.20 L 804.10 686.70 L 805.20 684.30 L 806.70 682.10 L 808.50 680.20 L 810.50 678.80 Z M 909.40 621.70 L 911.50 620.80 L 913.20 620.70 L 914.60 621.10 L 915.80 622.10 L 916.50 623.60 L 916.80 625.90 L 916.60 628.30 L 915.80 630.80 L 914.70 633.20 L 913.20 635.40 L 911.40 637.30 L 909.40 638.70 L 907.30 639.50 L 905.60 639.70 L 904.20 639.20 L 903.10 638.20 L 902.40 636.70 L 902.00 634.40 L 902.30 632.00 L 903.00 629.50 L 904.20 627.20 L 905.70 625.00 L 907.50 623.10 L 909.40 621.70 Z" fill="#f9607f" fill-rule="nonzero" group-id="1,20" node-id="319" stroke="none" target-height="76.099976" target-width="113.70001" target-x="803.1" target-y="620.7"></path><path d="M 923.00 609.80 L 796.90 682.60 L 796.90 707.70 L 923.10 634.80 L 923.00 609.80 Z M 810.50 695.80 L 808.40 696.60 L 806.70 696.80 L 805.30 696.30 L 804.20 695.30 L 803.40 693.80 L 803.10 691.60 L 803.40 689.20 L 804.10 686.70 L 805.30 684.30 L 806.70 682.10 L 808.50 680.20 L 810.50 678.80 L 812.60 677.90 L 814.30 677.80 L 815.70 678.30 L 816.80 679.20 L 817.60 680.70 L 817.90 683.00 L 817.60 685.40 L 816.90 687.90 L 815.70 690.30 L 814.20 692.50 L 812.50 694.40 L 810.50 695.80 Z M 896.50 644.90 L 823.40 687.00 L 823.40 672.60 L 896.50 630.30 L 896.50 644.90 Z M 909.40 638.70 L 907.30 639.60 L 905.60 639.70 L 904.20 639.20 L 903.10 638.20 L 902.40 636.70 L 902.10 634.40 L 902.30 632.00 L 903.00 629.50 L 905.70 625.00 L 907.50 623.10 L 909.40 621.70 L 911.50 620.80 L 913.20 620.70 L 914.70 621.10 L 915.80 622.10 L 916.50 623.60 L 916.80 625.90 L 916.60 628.30 L 915.80 630.80 L 914.70 633.10 L 913.20 635.40 L 911.40 637.30 L 909.40 638.70 Z" fill="#4c7891" fill-rule="nonzero" group-id="1,21" node-id="324" stroke="none" target-height="97.900024" target-width="126.19995" target-x="796.9" target-y="609.8"></path><path d="M 896.50 672.60 L 896.50 687.10 L 823.40 729.30 L 823.40 714.80 L 896.50 672.60 Z" fill="#d4dae8" fill-rule="nonzero" group-id="1,22" node-id="329" stroke="none" target-height="56.700012" target-width="73.099976" target-x="823.4" target-y="672.6"></path><path d="M 810.50 721.00 L 812.60 720.20 L 814.30 720.00 L 815.70 720.50 L 816.80 721.50 L 817.60 723.00 L 817.90 725.20 L 817.60 727.60 L 816.90 730.10 L 815.70 732.50 L 814.30 734.70 L 812.50 736.60 L 810.50 738.00 L 808.40 738.90 L 806.70 739.00 L 805.30 738.60 L 804.20 737.60 L 803.40 736.10 L 803.10 733.80 L 803.30 731.40 L 804.10 728.90 L 805.20 726.50 L 806.70 724.30 L 808.50 722.40 L 810.50 721.00 Z M 909.40 663.90 L 911.50 663.10 L 913.20 662.90 L 914.60 663.40 L 915.80 664.30 L 916.50 665.80 L 916.80 668.10 L 916.60 670.50 L 915.80 673.00 L 914.70 675.40 L 913.20 677.60 L 911.40 679.50 L 909.40 680.90 L 907.30 681.80 L 905.60 681.90 L 904.20 681.40 L 903.10 680.50 L 902.40 678.90 L 902.00 676.70 L 902.30 674.30 L 903.00 671.80 L 904.20 669.40 L 905.70 667.20 L 907.50 665.30 L 909.40 663.90 Z" fill="#e4e8f4" fill-rule="nonzero" group-id="1,23" node-id="334" stroke="none" target-height="76.099976" target-width="113.70001" target-x="803.1" target-y="662.9"></path><path d="M 923.00 652.00 L 796.90 724.90 L 796.90 749.90 L 923.10 677.00 L 923.00 652.00 Z M 810.50 738.00 L 808.40 738.90 L 806.70 739.00 L 805.30 738.50 L 804.20 737.60 L 803.40 736.00 L 803.10 733.80 L 803.40 731.40 L 805.30 726.50 L 806.70 724.30 L 808.50 722.40 L 810.50 721.00 L 812.60 720.20 L 814.30 720.00 L 815.70 720.50 L 816.80 721.50 L 817.60 723.00 L 817.90 725.20 L 817.60 727.60 L 816.90 730.10 L 815.70 732.50 L 814.20 734.70 L 812.50 736.60 L 810.50 738.00 Z M 896.50 687.10 L 823.40 729.30 L 823.40 714.80 L 896.50 672.60 L 896.50 687.10 Z M 909.40 680.90 L 907.30 681.80 L 905.60 681.90 L 904.20 681.40 L 903.10 680.50 L 902.40 678.90 L 902.10 676.60 L 902.30 674.20 L 903.00 671.80 L 904.20 669.40 L 907.50 665.40 L 909.40 664.00 L 911.50 663.10 L 913.20 662.90 L 914.70 663.40 L 915.80 664.30 L 916.50 665.80 L 916.80 668.10 L 916.60 670.50 L 915.80 673.00 L 914.70 675.40 L 913.20 677.60 L 911.40 679.50 L 909.40 680.90 Z" fill="#4c7891" fill-rule="nonzero" group-id="1,24" node-id="339" stroke="none" target-height="97.900024" target-width="126.19995" target-x="796.9" target-y="652"></path><path d="M 896.50 714.80 L 896.50 729.30 L 823.40 771.50 L 823.40 757.00 L 896.50 714.80 Z" fill="#d4dae8" fill-rule="nonzero" group-id="1,25" node-id="344" stroke="none" target-height="56.700012" target-width="73.099976" target-x="823.4" target-y="714.8"></path><path d="M 810.50 763.30 L 812.60 762.40 L 814.30 762.30 L 815.70 762.70 L 816.80 763.70 L 817.60 765.20 L 817.90 767.50 L 817.60 769.90 L 816.90 772.40 L 815.70 774.80 L 814.30 777.00 L 812.50 778.90 L 810.50 780.30 L 808.40 781.10 L 806.70 781.30 L 805.30 780.80 L 804.20 779.80 L 803.40 778.30 L 803.10 776.00 L 803.30 773.60 L 804.10 771.10 L 805.20 768.80 L 808.50 764.70 L 810.50 763.30 Z M 909.40 706.20 L 911.50 705.30 L 913.20 705.20 L 914.60 705.60 L 915.80 706.60 L 916.50 708.10 L 916.80 710.40 L 916.60 712.70 L 915.80 715.20 L 914.70 717.60 L 913.20 719.80 L 911.40 721.70 L 909.40 723.20 L 907.30 724.00 L 905.60 724.10 L 904.20 723.70 L 903.10 722.70 L 902.40 721.20 L 902.00 718.90 L 902.30 716.50 L 903.00 714.00 L 904.20 711.60 L 905.70 709.50 L 907.50 707.60 L 909.40 706.20 Z" fill="#f9bb4a" fill-rule="nonzero" group-id="1,26" node-id="349" stroke="none" target-height="76.099976" target-width="113.70001" target-x="803.1" target-y="705.2"></path><path d="M 923.00 694.30 L 796.90 767.10 L 796.90 792.10 L 923.10 719.20 L 923.00 694.30 Z M 810.50 780.30 L 808.40 781.10 L 806.70 781.30 L 805.30 780.80 L 804.20 779.80 L 803.40 778.30 L 803.10 776.10 L 803.40 773.60 L 804.10 771.10 L 805.30 768.80 L 806.70 766.60 L 808.50 764.70 L 810.50 763.20 L 812.60 762.40 L 814.30 762.20 L 815.70 762.70 L 816.80 763.70 L 817.60 765.20 L 817.90 767.50 L 817.60 769.90 L 816.90 772.40 L 815.70 774.80 L 814.20 777.00 L 812.50 778.90 L 810.50 780.30 Z M 896.50 729.30 L 823.40 771.50 L 823.40 757.10 L 896.50 714.80 L 896.50 729.30 Z M 909.40 723.10 L 907.30 724.00 L 905.60 724.10 L 904.20 723.70 L 903.10 722.70 L 902.40 721.20 L 902.10 718.90 L 902.30 716.50 L 903.00 714.00 L 904.20 711.70 L 907.50 707.60 L 909.40 706.20 L 911.50 705.30 L 913.20 705.20 L 914.70 705.60 L 915.80 706.60 L 916.50 708.10 L 916.80 710.40 L 916.60 712.80 L 915.80 715.30 L 914.70 717.60 L 913.20 719.80 L 911.40 721.70 L 909.40 723.10 Z" fill="#4c7891" fill-rule="nonzero" group-id="1,27" node-id="354" stroke="none" target-height="97.79999" target-width="126.19995" target-x="796.9" target-y="694.3"></path><path d="M 624.20 912.10 L 497.60 838.50 L 496.80 519.30 L 623.40 592.90 L 624.20 912.10 Z" fill="#416e84" fill-rule="nonzero" group-id="1,28" node-id="359" stroke="none" target-height="392.8" target-width="127.400024" target-x="496.8" target-y="519.3"></path><path d="M 762.40 512.70 L 623.40 592.90 L 496.80 519.30 L 635.70 439.10 L 762.40 512.70 Z" fill="#4c7891" fill-rule="nonzero" group-id="1,29" node-id="364" stroke="none" target-height="153.80002" target-width="265.60004" target-x="496.8" target-y="439.1"></path><path d="M 762.30 512.70 L 763.20 831.80 L 624.20 912.10 L 623.40 592.90 L 762.30 512.70 Z" fill="#37617b" fill-rule="nonzero" group-id="1,30" node-id="369" stroke="none" target-height="399.39996" target-width="139.79999" target-x="623.4" target-y="512.7"></path><path d="M 729.80 555.70 L 729.80 570.20 L 656.80 612.40 L 656.70 597.90 L 729.80 555.70 Z" fill="#d4dae8" fill-rule="nonzero" group-id="1,31" node-id="374" stroke="none" target-height="56.700012" target-width="73.099976" target-x="656.7" target-y="555.7"></path><path d="M 643.80 604.10 L 645.90 603.20 L 647.60 603.10 L 649.00 603.50 L 650.10 604.50 L 650.90 606.00 L 651.20 608.30 L 651.00 610.70 L 650.20 613.20 L 649.10 615.60 L 647.60 617.80 L 645.80 619.70 L 643.90 621.10 L 641.70 622.00 L 640.00 622.10 L 638.60 621.60 L 637.50 620.60 L 636.70 619.10 L 636.40 616.80 L 636.70 614.50 L 637.40 612.00 L 638.60 609.60 L 640.10 607.40 L 641.90 605.50 L 643.80 604.10 Z M 742.70 547.00 L 744.90 546.10 L 746.50 546.00 L 748.00 546.40 L 749.10 547.40 L 749.80 548.90 L 750.10 551.20 L 749.90 553.60 L 749.10 556.10 L 746.50 560.70 L 744.70 562.60 L 742.80 564.00 L 740.60 564.80 L 738.90 565.00 L 737.50 564.50 L 736.40 563.50 L 735.70 562.00 L 735.40 559.70 L 735.60 557.30 L 736.40 554.80 L 737.50 552.50 L 739.00 550.30 L 740.80 548.40 L 742.70 547.00 Z" fill="#fed57a" fill-rule="nonzero" group-id="1,32" node-id="379" stroke="none" target-height="76.099976" target-width="113.69995" target-x="636.4" target-y="546"></path><path d="M 756.40 535.10 L 630.10 607.90 L 630.20 632.90 L 756.40 560.10 L 756.40 535.10 Z M 643.90 621.00 L 641.70 621.90 L 640.00 622.10 L 638.60 621.60 L 637.50 620.60 L 636.80 619.10 L 636.50 616.80 L 636.70 614.40 L 637.40 612.00 L 640.10 607.40 L 641.90 605.50 L 643.80 604.10 L 645.90 603.20 L 647.60 603.10 L 649.00 603.60 L 650.20 604.50 L 650.90 606.00 L 651.20 608.30 L 651.00 610.70 L 650.20 613.20 L 649.10 615.60 L 647.60 617.70 L 645.80 619.60 L 643.90 621.00 Z M 663.90 608.20 L 656.80 612.40 L 656.70 597.80 L 729.80 555.60 L 729.90 570.20 L 663.90 608.20 Z M 749.50 554.90 L 747.90 558.50 L 745.60 561.60 L 742.80 564.00 L 740.60 564.80 L 738.90 565.00 L 737.50 564.50 L 736.40 563.50 L 735.70 562.00 L 735.30 559.70 L 735.60 557.30 L 736.30 554.80 L 739.00 550.30 L 740.80 548.40 L 742.70 547.00 L 744.60 546.20 L 746.10 545.90 L 747.30 546.10 L 748.40 546.70 L 749.50 548.00 L 750.10 551.20 L 749.50 554.90 Z" fill="#4c7891" fill-rule="nonzero" group-id="1,33" node-id="384" stroke="none" target-height="97.80005" target-width="126.30005" target-x="630.1" target-y="535.1"></path><path d="M 729.80 597.90 L 729.80 612.40 L 656.80 654.60 L 656.70 640.10 L 729.80 597.90 Z" fill="#d4dae8" fill-rule="nonzero" group-id="1,34" node-id="389" stroke="none" target-height="56.69995" target-width="73.099976" target-x="656.7" target-y="597.9"></path><path d="M 643.80 646.30 L 645.90 645.50 L 647.60 645.30 L 649.00 645.80 L 650.10 646.80 L 650.90 648.30 L 651.20 650.50 L 651.00 652.90 L 650.20 655.40 L 649.10 657.80 L 647.60 660.00 L 645.80 661.90 L 643.90 663.30 L 641.70 664.20 L 640.00 664.30 L 638.60 663.90 L 637.50 662.90 L 636.70 661.40 L 636.40 659.10 L 636.70 656.70 L 637.40 654.20 L 638.60 651.80 L 640.10 649.60 L 641.90 647.70 L 643.80 646.30 Z M 742.70 589.20 L 744.90 588.40 L 746.50 588.20 L 748.00 588.70 L 749.10 589.60 L 749.80 591.10 L 750.10 593.40 L 749.90 595.80 L 749.10 598.30 L 746.50 602.90 L 744.70 604.80 L 742.80 606.20 L 740.60 607.10 L 738.90 607.20 L 737.50 606.70 L 736.40 605.80 L 735.70 604.20 L 735.40 602.00 L 735.60 599.60 L 736.40 597.10 L 737.50 594.70 L 739.00 592.50 L 740.80 590.60 L 742.70 589.20 Z" fill="#f9607f" fill-rule="nonzero" group-id="1,35" node-id="394" stroke="none" target-height="76.099976" target-width="113.69995" target-x="636.4" target-y="588.2"></path><path d="M 756.40 577.30 L 630.10 650.20 L 630.20 675.10 L 756.40 602.30 L 756.40 577.30 Z M 643.90 663.30 L 641.70 664.20 L 640.00 664.30 L 638.60 663.90 L 637.50 662.90 L 636.80 661.40 L 636.50 659.10 L 636.70 656.70 L 637.40 654.20 L 638.60 651.80 L 640.10 649.60 L 641.90 647.70 L 643.80 646.30 L 645.90 645.40 L 647.60 645.30 L 649.00 645.80 L 650.20 646.70 L 650.90 648.30 L 651.20 650.50 L 651.00 652.90 L 650.20 655.40 L 649.10 657.80 L 647.60 660.00 L 645.80 661.90 L 643.90 663.30 Z M 664.00 650.40 L 656.80 654.60 L 656.70 640.10 L 664.00 635.90 L 729.80 597.90 L 729.90 612.40 L 664.00 650.40 Z M 749.50 597.20 L 747.70 601.20 L 745.60 603.90 L 742.80 606.20 L 740.60 607.10 L 738.90 607.20 L 737.50 606.70 L 736.40 605.70 L 735.70 604.20 L 735.30 602.00 L 735.60 599.60 L 736.30 597.10 L 739.00 592.50 L 740.80 590.60 L 742.70 589.20 L 744.50 588.40 L 746.00 588.20 L 748.00 588.70 L 749.50 590.30 L 750.10 593.50 L 749.50 597.20 Z" fill="#4c7891" fill-rule="nonzero" group-id="1,36" node-id="399" stroke="none" target-height="97.79999" target-width="126.30005" target-x="630.1" target-y="577.3"></path><path d="M 729.80 640.10 L 729.80 654.60 L 656.80 696.80 L 656.70 682.30 L 729.80 640.10 Z" fill="#d4dae8" fill-rule="nonzero" group-id="1,37" node-id="404" stroke="none" target-height="56.700012" target-width="73.099976" target-x="656.7" target-y="640.1"></path><path d="M 643.80 688.60 L 645.90 687.70 L 647.60 687.60 L 649.00 688.00 L 650.10 689.00 L 650.90 690.50 L 651.20 692.80 L 651.00 695.20 L 650.20 697.70 L 649.10 700.10 L 647.60 702.30 L 645.80 704.20 L 643.90 705.60 L 641.70 706.40 L 640.00 706.60 L 638.60 706.10 L 637.50 705.10 L 636.70 703.60 L 636.40 701.30 L 636.70 698.90 L 637.40 696.50 L 638.60 694.10 L 640.10 691.90 L 641.90 690.00 L 643.80 688.60 Z M 742.70 631.50 L 744.90 630.60 L 746.50 630.50 L 748.00 630.90 L 749.10 631.90 L 749.80 633.40 L 750.10 635.70 L 749.90 638.00 L 749.10 640.50 L 748.00 642.90 L 746.50 645.10 L 744.70 647.00 L 742.80 648.50 L 740.60 649.30 L 738.90 649.40 L 737.50 649.00 L 736.40 648.00 L 735.70 646.50 L 735.40 644.20 L 735.60 641.80 L 736.40 639.30 L 737.50 636.90 L 739.00 634.80 L 740.80 632.90 L 742.70 631.50 Z" fill="#9ad898" fill-rule="nonzero" group-id="1,38" node-id="409" stroke="none" target-height="76.099976" target-width="113.69995" target-x="636.4" target-y="630.5"></path><path d="M 756.40 619.60 L 630.10 692.40 L 630.20 717.40 L 756.40 644.60 L 756.40 619.60 Z M 643.90 705.50 L 641.70 706.40 L 640.00 706.60 L 638.60 706.10 L 637.50 705.10 L 636.80 703.60 L 636.50 701.30 L 636.70 698.90 L 637.40 696.50 L 640.10 691.90 L 641.90 690.00 L 643.80 688.60 L 645.90 687.70 L 647.60 687.60 L 649.00 688.00 L 650.20 689.00 L 650.90 690.50 L 651.20 692.80 L 651.00 695.20 L 650.20 697.70 L 649.10 700.10 L 647.60 702.20 L 645.80 704.10 L 643.90 705.50 Z M 664.10 692.60 L 656.80 696.90 L 656.70 682.30 L 664.10 678.00 L 729.80 640.10 L 729.90 654.70 L 664.10 692.60 Z M 749.50 639.40 L 748.40 642.10 L 745.60 646.10 L 742.80 648.50 L 740.60 649.30 L 738.90 649.40 L 737.50 649.00 L 736.40 648.00 L 735.70 646.40 L 735.30 644.20 L 735.60 641.80 L 736.30 639.30 L 739.00 634.70 L 740.80 632.90 L 742.70 631.40 L 744.50 630.60 L 746.00 630.40 L 747.70 630.80 L 749.50 632.50 L 750.10 635.70 L 749.50 639.40 Z" fill="#4c7891" fill-rule="nonzero" group-id="1,39" node-id="414" stroke="none" target-height="97.80005" target-width="126.30005" target-x="630.1" target-y="619.6"></path><path d="M 729.80 682.40 L 729.80 696.90 L 656.80 739.10 L 656.70 724.60 L 729.80 682.40 Z" fill="#d4dae8" fill-rule="nonzero" group-id="1,40" node-id="419" stroke="none" target-height="56.69995" target-width="73.099976" target-x="656.7" target-y="682.4"></path><path d="M 643.80 730.80 L 645.90 729.90 L 647.60 729.80 L 649.00 730.30 L 650.10 731.20 L 650.90 732.80 L 651.20 735.00 L 651.00 737.40 L 650.20 739.90 L 649.10 742.30 L 647.60 744.50 L 645.80 746.40 L 643.90 747.80 L 641.70 748.70 L 640.00 748.80 L 638.60 748.30 L 637.50 747.40 L 636.70 745.80 L 636.40 743.60 L 636.70 741.20 L 637.40 738.70 L 638.60 736.30 L 640.10 734.10 L 641.90 732.20 L 643.80 730.80 Z M 742.70 673.70 L 744.90 672.80 L 746.50 672.70 L 748.00 673.20 L 749.10 674.10 L 749.80 675.60 L 750.10 677.90 L 749.90 680.30 L 749.10 682.80 L 748.00 685.20 L 746.50 687.40 L 744.70 689.30 L 742.80 690.70 L 740.60 691.60 L 738.90 691.70 L 737.50 691.20 L 736.40 690.20 L 735.70 688.70 L 735.40 686.40 L 735.60 684.10 L 736.40 681.60 L 737.50 679.20 L 739.00 677.00 L 740.80 675.10 L 742.70 673.70 Z" fill="#748bfd" fill-rule="nonzero" group-id="1,41" node-id="424" stroke="none" target-height="76.099976" target-width="113.69995" target-x="636.4" target-y="672.7"></path><path d="M 756.40 661.80 L 630.10 734.60 L 630.20 759.60 L 756.40 686.80 L 756.40 661.80 Z M 643.90 747.80 L 641.70 748.70 L 640.00 748.80 L 638.60 748.40 L 637.50 747.40 L 636.80 745.80 L 636.50 743.50 L 636.70 741.20 L 637.40 738.70 L 640.10 734.10 L 641.90 732.20 L 643.80 730.80 L 645.90 729.90 L 647.60 729.80 L 649.00 730.30 L 650.20 731.20 L 650.90 732.80 L 651.20 735.00 L 651.00 737.40 L 650.20 739.90 L 649.10 742.30 L 647.60 744.50 L 645.80 746.40 L 643.90 747.80 Z M 664.30 734.80 L 656.80 739.10 L 656.70 724.50 L 729.80 682.40 L 729.90 696.90 L 664.30 734.80 Z M 749.60 681.50 L 748.30 684.60 L 745.90 688.10 L 742.80 690.70 L 740.60 691.60 L 738.90 691.70 L 737.50 691.20 L 736.40 690.20 L 735.70 688.70 L 735.30 686.50 L 735.60 684.10 L 736.30 681.60 L 739.00 677.00 L 740.80 675.10 L 742.70 673.70 L 744.60 672.90 L 746.10 672.60 L 747.30 672.90 L 748.40 673.40 L 749.50 674.70 L 750.10 677.90 L 749.60 681.50 Z" fill="#4c7891" fill-rule="nonzero" group-id="1,42" node-id="429" stroke="none" target-height="97.79999" target-width="126.30005" target-x="630.1" target-y="661.8"></path><path d="M 729.80 724.60 L 729.80 739.10 L 656.80 781.30 L 656.70 766.80 L 729.80 724.60 Z" fill="#d4dae8" fill-rule="nonzero" group-id="1,43" node-id="434" stroke="none" target-height="56.700012" target-width="73.099976" target-x="656.7" target-y="724.6"></path><path d="M 643.80 773.00 L 645.90 772.20 L 647.60 772.10 L 649.00 772.50 L 650.10 773.50 L 650.90 775.00 L 651.20 777.30 L 651.00 779.70 L 650.20 782.20 L 649.10 784.60 L 647.60 786.70 L 645.80 788.60 L 643.90 790.00 L 641.70 790.90 L 640.00 791.00 L 638.60 790.60 L 637.50 789.60 L 636.70 788.10 L 636.40 785.80 L 636.70 783.40 L 637.40 780.90 L 638.60 778.50 L 640.10 776.40 L 641.90 774.50 L 643.80 773.00 Z M 742.70 716.00 L 744.90 715.10 L 746.50 714.90 L 748.00 715.40 L 749.10 716.40 L 749.80 717.90 L 750.10 720.10 L 749.90 722.50 L 749.10 725.00 L 748.00 727.40 L 746.50 729.60 L 744.70 731.50 L 742.80 732.90 L 740.60 733.80 L 738.90 733.90 L 737.50 733.50 L 736.40 732.50 L 735.70 731.00 L 735.40 728.70 L 735.60 726.30 L 736.40 723.80 L 737.50 721.40 L 739.00 719.20 L 740.80 717.40 L 742.70 716.00 Z" fill="#f9607f" fill-rule="nonzero" group-id="1,44" node-id="439" stroke="none" target-height="76.099976" target-width="113.69995" target-x="636.4" target-y="714.9"></path><path d="M 756.40 704.10 L 630.10 776.90 L 630.20 801.90 L 756.40 729.10 L 756.40 704.10 Z M 643.90 790.00 L 641.70 790.90 L 640.00 791.00 L 638.60 790.60 L 637.50 789.60 L 636.80 788.10 L 636.50 785.80 L 636.70 783.40 L 637.40 780.90 L 638.60 778.50 L 640.10 776.40 L 641.90 774.50 L 643.80 773.10 L 645.90 772.20 L 647.60 772.10 L 649.00 772.50 L 650.20 773.50 L 650.90 775.00 L 651.20 777.20 L 651.00 779.60 L 650.20 782.10 L 649.10 784.50 L 647.60 786.70 L 645.80 788.60 L 643.90 790.00 Z M 692.60 760.70 L 656.80 781.30 L 656.70 766.80 L 729.80 724.60 L 729.90 739.20 L 692.60 760.70 Z M 749.50 723.90 L 748.40 726.60 L 745.60 730.60 L 742.80 733.00 L 740.60 733.80 L 738.90 733.90 L 737.50 733.50 L 736.40 732.50 L 735.70 730.90 L 735.30 728.70 L 735.60 726.30 L 736.30 723.80 L 739.00 719.20 L 740.80 717.30 L 742.70 715.90 L 744.50 715.10 L 746.00 714.90 L 748.00 715.40 L 749.50 717.00 L 750.10 720.20 L 749.50 723.90 Z" fill="#4c7891" fill-rule="nonzero" group-id="1,45" node-id="444" stroke="none" target-height="97.80005" target-width="126.30005" target-x="630.1" target-y="704.1"></path><path d="M 729.80 766.90 L 729.80 781.40 L 656.80 823.60 L 656.70 809.10 L 729.80 766.90 Z" fill="#d4dae8" fill-rule="nonzero" group-id="1,46" node-id="449" stroke="none" target-height="56.69995" target-width="73.099976" target-x="656.7" target-y="766.9"></path><path d="M 643.80 815.30 L 645.90 814.40 L 647.60 814.30 L 649.00 814.80 L 650.10 815.70 L 650.90 817.20 L 651.20 819.50 L 651.00 821.90 L 650.20 824.40 L 649.10 826.80 L 647.60 829.00 L 645.80 830.90 L 643.90 832.30 L 641.70 833.20 L 640.00 833.30 L 638.60 832.80 L 637.50 831.80 L 636.70 830.30 L 636.40 828.00 L 636.70 825.70 L 637.40 823.20 L 638.60 820.80 L 640.10 818.60 L 641.90 816.70 L 643.80 815.30 Z M 742.70 758.20 L 744.90 757.30 L 746.50 757.20 L 748.00 757.60 L 749.10 758.60 L 749.80 760.10 L 750.10 762.40 L 749.90 764.80 L 749.10 767.30 L 748.00 769.70 L 746.50 771.90 L 744.70 773.80 L 742.80 775.20 L 740.60 776.00 L 738.90 776.20 L 737.50 775.70 L 736.40 774.70 L 735.70 773.20 L 735.40 770.90 L 735.60 768.50 L 736.40 766.00 L 737.50 763.70 L 739.00 761.50 L 740.80 759.60 L 742.70 758.20 Z" fill="#e4e8f4" fill-rule="nonzero" group-id="1,47" node-id="454" stroke="none" target-height="76.099976" target-width="113.69995" target-x="636.4" target-y="757.2"></path><path d="M 756.40 746.30 L 630.10 819.10 L 630.20 844.10 L 756.40 771.30 L 756.40 746.30 Z M 643.90 832.30 L 641.70 833.10 L 640.00 833.30 L 638.60 832.80 L 637.50 831.80 L 636.80 830.30 L 636.50 828.00 L 636.70 825.70 L 637.40 823.20 L 638.60 820.80 L 640.10 818.60 L 641.90 816.70 L 643.80 815.30 L 645.90 814.40 L 647.60 814.30 L 649.00 814.80 L 650.20 815.70 L 650.90 817.30 L 651.20 819.50 L 651.00 821.90 L 650.20 824.40 L 649.10 826.80 L 647.60 829.00 L 645.80 830.80 L 643.90 832.30 Z M 656.80 823.60 L 656.70 809.00 L 729.80 766.80 L 729.90 781.40 L 656.80 823.60 Z M 749.50 766.10 L 747.90 769.70 L 745.60 772.80 L 742.80 775.20 L 740.60 776.10 L 738.90 776.20 L 737.50 775.70 L 736.40 774.70 L 735.70 773.20 L 735.30 770.90 L 735.60 768.50 L 736.30 766.00 L 737.50 763.60 L 739.00 761.50 L 740.80 759.60 L 742.70 758.20 L 744.50 757.40 L 746.00 757.10 L 747.70 757.50 L 748.90 758.40 L 749.50 759.20 L 750.10 762.40 L 749.50 766.10 Z" fill="#4c7891" fill-rule="nonzero" group-id="1,48" node-id="459" stroke="none" target-height="97.79999" target-width="126.30005" target-x="630.1" target-y="746.3"></path><path d="M 729.80 809.10 L 729.80 823.60 L 656.80 865.80 L 656.70 851.30 L 729.80 809.10 Z" fill="#d4dae8" fill-rule="nonzero" group-id="1,49" node-id="464" stroke="none" target-height="56.700012" target-width="73.099976" target-x="656.7" target-y="809.1"></path><path d="M 643.80 857.50 L 645.90 856.70 L 647.60 856.50 L 649.00 857.00 L 650.10 858.00 L 650.90 859.50 L 651.20 861.70 L 651.00 864.10 L 650.20 866.60 L 649.10 869.00 L 647.60 871.20 L 645.80 873.10 L 643.90 874.50 L 641.70 875.40 L 640.00 875.50 L 638.60 875.10 L 637.50 874.10 L 636.70 872.60 L 636.40 870.30 L 636.70 867.90 L 637.40 865.40 L 638.60 863.00 L 641.90 859.00 L 643.80 857.50 Z M 742.70 800.40 L 744.90 799.60 L 746.50 799.40 L 748.00 799.90 L 749.10 800.80 L 749.80 802.30 L 750.10 804.60 L 749.90 807.00 L 749.10 809.50 L 748.00 811.90 L 746.50 814.10 L 744.70 816.00 L 742.80 817.40 L 740.60 818.30 L 738.90 818.40 L 737.50 817.90 L 736.40 817.00 L 735.70 815.40 L 735.40 813.20 L 735.60 810.80 L 736.40 808.30 L 737.50 805.90 L 739.00 803.70 L 740.80 801.80 L 742.70 800.40 Z" fill="#f9bb4a" fill-rule="nonzero" group-id="1,50" node-id="469" stroke="none" target-height="76.099976" target-width="113.69995" target-x="636.4" target-y="799.4"></path><path d="M 756.40 797.70 L 756.40 788.60 L 630.10 861.40 L 630.20 886.30 L 756.40 813.50 L 756.40 797.70 Z M 643.90 874.50 L 641.70 875.40 L 640.00 875.50 L 638.60 875.10 L 637.50 874.10 L 636.80 872.60 L 636.50 870.30 L 636.70 867.90 L 637.40 865.40 L 638.60 863.00 L 641.90 858.90 L 643.80 857.50 L 645.90 856.60 L 647.60 856.50 L 649.00 857.00 L 650.20 858.00 L 650.90 859.50 L 651.20 861.70 L 651.00 864.10 L 650.20 866.60 L 649.10 869.00 L 647.60 871.20 L 645.80 873.10 L 643.90 874.50 Z M 656.80 865.80 L 656.70 851.30 L 729.80 809.10 L 729.90 823.60 L 656.80 865.80 Z M 749.60 808.30 L 748.30 811.30 L 745.90 814.90 L 742.80 817.40 L 740.60 818.30 L 738.90 818.40 L 737.50 817.90 L 736.40 817.00 L 735.70 815.40 L 735.30 813.20 L 735.60 810.80 L 736.30 808.30 L 737.50 805.90 L 739.00 803.70 L 740.80 801.80 L 742.70 800.40 L 744.50 799.60 L 746.00 799.40 L 748.00 799.90 L 749.50 801.50 L 750.10 804.60 L 749.60 808.30 Z" fill="#4c7891" fill-rule="nonzero" group-id="1,51" node-id="474" stroke="none" target-height="97.70001" target-width="126.30005" target-x="630.1" target-y="788.6"></path><path d="M 457.50 1006.30 L 330.90 932.80 L 330.10 613.60 L 456.70 687.20 L 457.50 1006.30 Z" fill="#416e84" fill-rule="nonzero" group-id="1,52" node-id="479" stroke="none" target-height="392.7" target-width="127.399994" target-x="330.1" target-y="613.6"></path><path d="M 595.60 607.00 L 456.70 687.20 L 330.10 613.60 L 469.10 533.40 L 595.60 607.00 Z" fill="#4c7891" fill-rule="nonzero" group-id="1,53" node-id="484" stroke="none" target-height="153.79999" target-width="265.49997" target-x="330.1" target-y="533.4"></path><path d="M 595.70 607.00 L 596.50 926.10 L 457.50 1006.30 L 456.70 687.20 L 595.70 607.00 Z" fill="#37617b" fill-rule="nonzero" group-id="1,54" node-id="489" stroke="none" target-height="399.3" target-width="139.79999" target-x="456.7" target-y="607"></path><path d="M 563.10 649.90 L 563.20 664.40 L 490.10 706.60 L 490.10 692.10 L 563.10 649.90 Z" fill="#d4dae8" fill-rule="nonzero" group-id="1,55" node-id="494" stroke="none" target-height="56.69995" target-width="73.100006" target-x="490.1" target-y="649.9"></path><path d="M 477.10 698.40 L 479.30 697.50 L 480.90 697.40 L 482.30 697.80 L 483.50 698.80 L 484.20 700.30 L 484.50 702.60 L 484.30 705.00 L 483.50 707.50 L 480.90 712.00 L 479.10 713.90 L 477.20 715.30 L 475.00 716.20 L 473.30 716.30 L 471.90 715.90 L 470.80 714.90 L 470.10 713.40 L 469.70 711.10 L 470.00 708.70 L 470.70 706.20 L 473.40 701.70 L 475.20 699.80 L 477.10 698.40 Z M 576.00 641.30 L 578.20 640.40 L 579.90 640.20 L 581.30 640.70 L 582.40 641.70 L 583.10 643.20 L 583.50 645.40 L 583.20 647.80 L 582.50 650.30 L 581.30 652.70 L 579.80 654.90 L 578.00 656.80 L 576.10 658.30 L 574.00 659.10 L 572.30 659.20 L 570.90 658.80 L 569.80 657.80 L 569.00 656.30 L 568.70 654.00 L 568.90 651.60 L 569.70 649.10 L 570.80 646.70 L 572.30 644.50 L 574.10 642.70 L 576.00 641.30 Z" fill="#fed57a" fill-rule="nonzero" group-id="1,56" node-id="499" stroke="none" target-height="76.099976" target-width="113.79999" target-x="469.7" target-y="640.2"></path><path d="M 589.60 629.30 L 463.50 702.20 L 463.50 727.20 L 589.70 654.30 L 589.60 629.30 Z M 477.10 715.30 L 475.00 716.20 L 473.30 716.30 L 471.90 715.90 L 470.80 714.90 L 470.00 713.40 L 469.70 711.10 L 470.00 708.70 L 470.70 706.20 L 471.90 703.80 L 473.40 701.70 L 475.20 699.80 L 477.10 698.40 L 479.30 697.50 L 480.90 697.40 L 482.30 697.80 L 483.40 698.80 L 484.20 700.30 L 484.50 702.60 L 484.30 704.90 L 483.50 707.40 L 482.40 709.80 L 480.90 712.00 L 479.10 713.90 L 477.10 715.30 Z M 563.10 664.40 L 490.00 706.60 L 490.00 692.10 L 563.10 649.90 L 563.10 664.40 Z M 576.10 658.30 L 574.00 659.10 L 572.30 659.20 L 570.90 658.80 L 569.80 657.80 L 569.00 656.30 L 568.70 654.00 L 568.90 651.60 L 569.70 649.10 L 572.30 644.50 L 574.10 642.60 L 576.00 641.20 L 578.20 640.40 L 579.80 640.20 L 581.30 640.70 L 582.40 641.70 L 583.10 643.20 L 583.50 645.40 L 583.20 647.80 L 582.50 650.30 L 581.30 652.70 L 579.80 654.90 L 578.00 656.80 L 576.10 658.30 Z" fill="#4c7891" fill-rule="nonzero" group-id="1,57" node-id="504" stroke="none" target-height="97.900024" target-width="126.20001" target-x="463.5" target-y="629.3"></path><path d="M 563.10 692.20 L 563.20 706.70 L 490.10 748.90 L 490.00 734.40 L 563.10 692.20 Z" fill="#d4dae8" fill-rule="nonzero" group-id="1,58" node-id="509" stroke="none" target-height="56.700012" target-width="73.20001" target-x="490" target-y="692.2"></path><path d="M 477.10 740.60 L 479.30 739.70 L 480.90 739.60 L 482.30 740.10 L 483.50 741.00 L 484.20 742.50 L 484.50 744.80 L 484.30 747.20 L 483.50 749.70 L 482.40 752.10 L 480.90 754.30 L 479.10 756.20 L 477.20 757.60 L 475.00 758.50 L 473.30 758.60 L 471.90 758.10 L 470.80 757.10 L 470.10 755.60 L 469.70 753.30 L 470.00 751.00 L 470.70 748.50 L 471.90 746.10 L 473.40 743.90 L 475.20 742.00 L 477.10 740.60 Z M 576.00 683.50 L 578.20 682.60 L 579.90 682.50 L 581.30 682.90 L 582.40 683.90 L 583.10 685.40 L 583.50 687.70 L 583.20 690.10 L 582.50 692.60 L 579.80 697.20 L 578.00 699.10 L 576.10 700.50 L 574.00 701.40 L 572.30 701.50 L 570.90 701.00 L 569.80 700.00 L 569.00 698.50 L 568.70 696.20 L 568.90 693.80 L 569.70 691.40 L 572.30 686.80 L 574.10 684.90 L 576.00 683.50 Z" fill="#f9607f" fill-rule="nonzero" group-id="1,59" node-id="514" stroke="none" target-height="76.099976" target-width="113.79999" target-x="469.7" target-y="682.5"></path><path d="M 589.60 671.60 L 463.50 744.50 L 463.50 769.40 L 589.70 696.60 L 589.60 671.60 Z M 477.10 757.60 L 475.00 758.50 L 473.30 758.60 L 471.90 758.10 L 470.80 757.10 L 470.00 755.60 L 469.70 753.30 L 470.00 750.90 L 470.70 748.50 L 471.90 746.10 L 473.40 743.90 L 475.20 742.00 L 477.10 740.60 L 479.30 739.70 L 480.90 739.60 L 482.30 740.00 L 483.40 741.00 L 484.20 742.50 L 484.50 744.80 L 484.30 747.20 L 483.50 749.70 L 482.40 752.10 L 480.90 754.30 L 479.10 756.20 L 477.10 757.60 Z M 563.10 706.60 L 490.00 748.80 L 490.00 734.40 L 497.30 730.20 L 563.10 692.20 L 563.10 706.60 Z M 576.10 700.50 L 574.00 701.30 L 572.30 701.40 L 570.90 701.00 L 569.70 700.00 L 569.00 698.50 L 568.70 696.20 L 568.90 693.80 L 569.70 691.30 L 570.80 689.00 L 572.30 686.80 L 574.10 684.90 L 576.00 683.50 L 578.20 682.60 L 579.80 682.50 L 581.30 682.90 L 582.40 683.90 L 583.10 685.40 L 583.50 687.60 L 583.20 690.10 L 582.50 692.60 L 581.30 695.00 L 579.80 697.20 L 578.00 699.10 L 576.10 700.50 Z" fill="#4c7891" fill-rule="nonzero" group-id="1,60" node-id="519" stroke="none" target-height="97.80005" target-width="126.20001" target-x="463.5" target-y="671.6"></path><path d="M 563.10 734.40 L 563.20 748.90 L 490.10 791.10 L 490.00 776.60 L 563.10 734.40 Z" fill="#d4dae8" fill-rule="nonzero" group-id="1,61" node-id="524" stroke="none" target-height="56.69995" target-width="73.20001" target-x="490" target-y="734.4"></path><path d="M 477.10 782.80 L 479.30 782.00 L 480.90 781.80 L 482.30 782.30 L 483.50 783.30 L 484.20 784.80 L 484.50 787.00 L 484.30 789.40 L 483.50 791.90 L 482.40 794.30 L 480.90 796.50 L 479.10 798.40 L 477.20 799.80 L 475.00 800.70 L 473.30 800.80 L 471.90 800.40 L 470.80 799.40 L 470.10 797.90 L 469.70 795.60 L 470.00 793.20 L 470.70 790.70 L 471.90 788.30 L 473.40 786.10 L 475.20 784.20 L 477.10 782.80 Z M 576.00 725.70 L 578.20 724.90 L 579.90 724.70 L 581.30 725.20 L 582.40 726.10 L 583.10 727.70 L 583.50 729.90 L 583.20 732.30 L 582.50 734.80 L 581.30 737.20 L 579.80 739.40 L 578.00 741.30 L 576.10 742.70 L 574.00 743.60 L 572.30 743.70 L 570.90 743.20 L 569.80 742.30 L 569.00 740.70 L 568.70 738.50 L 568.90 736.10 L 569.70 733.60 L 570.80 731.20 L 572.30 729.00 L 574.10 727.10 L 576.00 725.70 Z" fill="#9ad898" fill-rule="nonzero" group-id="1,62" node-id="529" stroke="none" target-height="76.099976" target-width="113.79999" target-x="469.7" target-y="724.7"></path><path d="M 589.60 713.80 L 463.50 786.70 L 463.50 811.70 L 589.70 738.80 L 589.60 713.80 Z M 477.10 799.80 L 475.00 800.70 L 473.30 800.80 L 471.90 800.30 L 470.80 799.40 L 470.00 797.90 L 469.70 795.60 L 470.00 793.20 L 470.70 790.70 L 473.40 786.20 L 475.20 784.30 L 477.10 782.90 L 479.30 782.00 L 480.90 781.80 L 482.30 782.30 L 483.40 783.30 L 484.20 784.80 L 484.50 787.10 L 484.30 789.40 L 483.50 791.90 L 482.40 794.30 L 480.90 796.50 L 479.10 798.40 L 477.10 799.80 Z M 563.10 748.90 L 490.00 791.10 L 490.00 776.60 L 497.50 772.30 L 563.10 734.40 L 563.10 748.90 Z M 576.10 742.80 L 574.00 743.60 L 572.30 743.70 L 570.90 743.20 L 569.70 742.20 L 569.00 740.70 L 568.70 738.50 L 568.90 736.10 L 569.70 733.60 L 572.30 729.00 L 574.10 727.10 L 576.00 725.70 L 578.20 724.90 L 579.80 724.70 L 581.30 725.20 L 582.40 726.20 L 583.10 727.70 L 583.50 729.90 L 583.20 732.30 L 582.50 734.80 L 581.30 737.20 L 579.80 739.40 L 578.00 741.30 L 576.10 742.80 Z" fill="#4c7891" fill-rule="nonzero" group-id="1,63" node-id="534" stroke="none" target-height="97.900024" target-width="126.20001" target-x="463.5" target-y="713.8"></path><path d="M 563.10 776.60 L 563.20 791.20 L 490.10 833.30 L 490.00 818.80 L 563.10 776.60 Z" fill="#d4dae8" fill-rule="nonzero" group-id="1,64" node-id="539" stroke="none" target-height="56.700012" target-width="73.20001" target-x="490" target-y="776.6"></path><path d="M 477.10 825.10 L 479.30 824.20 L 480.90 824.10 L 482.30 824.50 L 483.50 825.50 L 484.20 827.00 L 484.50 829.30 L 484.30 831.70 L 483.50 834.20 L 482.40 836.60 L 480.90 838.80 L 479.10 840.70 L 477.20 842.10 L 475.00 842.90 L 473.30 843.10 L 471.90 842.60 L 470.80 841.60 L 470.10 840.10 L 469.70 837.80 L 470.00 835.40 L 470.70 833.00 L 471.90 830.60 L 473.40 828.40 L 475.20 826.50 L 477.10 825.10 Z M 576.00 768.00 L 578.20 767.10 L 579.90 767.00 L 581.30 767.40 L 582.40 768.40 L 583.10 769.90 L 583.50 772.20 L 583.20 774.60 L 582.50 777.10 L 579.80 781.60 L 578.00 783.60 L 576.10 785.00 L 574.00 785.80 L 572.30 785.90 L 570.90 785.50 L 569.80 784.50 L 569.00 783.00 L 568.70 780.70 L 568.90 778.30 L 569.70 775.80 L 570.80 773.40 L 572.30 771.30 L 574.10 769.40 L 576.00 768.00 Z" fill="#748bfd" fill-rule="nonzero" group-id="1,65" node-id="544" stroke="none" target-height="76.099976" target-width="113.79999" target-x="469.7" target-y="767"></path><path d="M 589.60 756.00 L 463.50 828.90 L 463.50 853.90 L 589.70 781.10 L 589.60 756.00 Z M 477.10 842.10 L 475.00 843.00 L 473.30 843.10 L 471.90 842.60 L 470.80 841.60 L 470.00 840.10 L 469.70 837.80 L 470.00 835.40 L 470.70 832.90 L 473.40 828.40 L 475.20 826.50 L 477.10 825.10 L 479.30 824.20 L 480.90 824.10 L 482.30 824.50 L 483.40 825.50 L 484.20 827.00 L 484.50 829.30 L 484.30 831.70 L 483.50 834.20 L 482.40 836.60 L 480.90 838.80 L 479.10 840.70 L 477.10 842.10 Z M 563.10 791.10 L 490.00 833.30 L 490.00 818.80 L 563.10 776.70 L 563.10 791.10 Z M 576.10 785.00 L 574.00 785.80 L 572.30 785.90 L 570.90 785.50 L 569.80 784.50 L 569.00 783.00 L 568.70 780.70 L 568.90 778.30 L 569.70 775.80 L 572.30 771.30 L 574.10 769.40 L 576.00 768.00 L 578.20 767.10 L 579.90 767.00 L 581.30 767.40 L 582.40 768.40 L 583.10 769.90 L 583.50 772.10 L 583.20 774.60 L 582.50 777.10 L 581.30 779.50 L 579.80 781.70 L 578.00 783.60 L 576.10 785.00 Z" fill="#4c7891" fill-rule="nonzero" group-id="1,66" node-id="549" stroke="none" target-height="97.900024" target-width="126.20001" target-x="463.5" target-y="756"></path><path d="M 563.10 818.90 L 563.20 833.40 L 490.10 875.60 L 490.00 861.10 L 563.10 818.90 Z" fill="#d4dae8" fill-rule="nonzero" group-id="1,67" node-id="554" stroke="none" target-height="56.69995" target-width="73.20001" target-x="490" target-y="818.9"></path><path d="M 477.10 867.30 L 479.30 866.50 L 480.90 866.30 L 482.30 866.80 L 483.50 867.70 L 484.20 869.30 L 484.50 871.50 L 484.30 873.90 L 483.50 876.40 L 482.40 878.80 L 480.90 881.00 L 479.10 882.90 L 477.20 884.30 L 475.00 885.20 L 473.30 885.30 L 471.90 884.80 L 470.80 883.90 L 470.10 882.30 L 469.70 880.10 L 470.00 877.70 L 470.70 875.20 L 471.90 872.80 L 473.40 870.60 L 475.20 868.70 L 477.10 867.30 Z M 576.00 810.20 L 578.20 809.30 L 579.90 809.20 L 581.30 809.70 L 582.40 810.60 L 583.10 812.10 L 583.50 814.40 L 583.20 816.80 L 582.50 819.30 L 581.30 821.70 L 579.80 823.90 L 578.00 825.80 L 576.10 827.20 L 574.00 828.10 L 572.30 828.20 L 570.90 827.70 L 569.80 826.70 L 569.00 825.20 L 568.70 822.90 L 568.90 820.60 L 569.70 818.10 L 570.80 815.70 L 572.30 813.50 L 574.10 811.60 L 576.00 810.20 Z" fill="#f9607f" fill-rule="nonzero" group-id="1,68" node-id="559" stroke="none" target-height="76.099976" target-width="113.79999" target-x="469.7" target-y="809.2"></path><path d="M 589.60 798.30 L 463.50 871.20 L 463.50 896.10 L 589.70 823.30 L 589.60 798.30 Z M 477.10 884.30 L 475.00 885.20 L 473.30 885.30 L 471.90 884.80 L 470.80 883.90 L 470.00 882.40 L 469.70 880.10 L 470.00 877.70 L 470.70 875.20 L 471.90 872.80 L 473.40 870.60 L 475.20 868.70 L 477.10 867.30 L 479.30 866.40 L 480.90 866.30 L 482.30 866.80 L 483.40 867.70 L 484.20 869.20 L 484.50 871.50 L 484.30 873.90 L 483.50 876.40 L 482.40 878.80 L 480.90 881.00 L 479.10 882.90 L 477.10 884.30 Z M 563.10 833.40 L 490.00 875.60 L 490.00 861.10 L 563.10 818.90 L 563.10 833.40 Z M 576.10 827.20 L 574.00 828.00 L 572.30 828.20 L 570.90 827.70 L 569.70 826.70 L 569.00 825.20 L 568.70 823.00 L 568.90 820.60 L 569.70 818.10 L 572.30 813.50 L 574.10 811.60 L 576.00 810.20 L 578.20 809.30 L 579.80 809.20 L 581.30 809.70 L 582.40 810.60 L 583.10 812.10 L 583.50 814.40 L 583.20 816.80 L 582.50 819.30 L 581.30 821.70 L 579.80 823.90 L 578.00 825.80 L 576.10 827.20 Z" fill="#4c7891" fill-rule="nonzero" group-id="1,69" node-id="564" stroke="none" target-height="97.79999" target-width="126.20001" target-x="463.5" target-y="798.3"></path><path d="M 563.10 861.10 L 563.20 875.60 L 490.10 917.80 L 490.00 903.30 L 563.10 861.10 Z" fill="#d4dae8" fill-rule="nonzero" group-id="1,70" node-id="569" stroke="none" target-height="56.700012" target-width="73.20001" target-x="490" target-y="861.1"></path><path d="M 477.10 909.60 L 479.30 908.70 L 480.90 908.60 L 482.30 909.00 L 483.50 910.00 L 484.20 911.50 L 484.50 913.80 L 484.30 916.20 L 483.50 918.70 L 482.40 921.10 L 480.90 923.20 L 479.10 925.10 L 477.20 926.50 L 475.00 927.40 L 473.30 927.50 L 471.90 927.10 L 470.80 926.10 L 470.10 924.60 L 469.70 922.30 L 470.00 919.90 L 470.70 917.40 L 471.90 915.10 L 473.40 912.90 L 475.20 911.00 L 477.10 909.60 Z M 576.00 852.50 L 578.20 851.60 L 579.90 851.50 L 581.30 851.90 L 582.40 852.90 L 583.10 854.40 L 583.50 856.70 L 583.20 859.00 L 582.50 861.50 L 581.30 863.90 L 579.80 866.10 L 578.00 868.00 L 576.10 869.50 L 574.00 870.30 L 572.30 870.40 L 570.90 870.00 L 569.80 869.00 L 569.00 867.50 L 568.70 865.20 L 568.90 862.80 L 569.70 860.30 L 570.80 857.90 L 572.30 855.80 L 574.10 853.90 L 576.00 852.50 Z" fill="#e4e8f4" fill-rule="nonzero" group-id="1,71" node-id="574" stroke="none" target-height="76" target-width="113.79999" target-x="469.7" target-y="851.5"></path><path d="M 589.60 840.50 L 463.50 913.40 L 463.50 938.40 L 566.90 878.80 L 589.70 865.60 L 589.60 840.50 Z M 477.10 926.50 L 475.00 927.40 L 473.30 927.50 L 471.90 927.10 L 470.80 926.10 L 470.00 924.60 L 469.70 922.30 L 470.00 919.90 L 470.70 917.40 L 471.90 915.10 L 473.40 912.90 L 475.20 911.00 L 477.10 909.60 L 479.30 908.70 L 480.90 908.60 L 482.30 909.00 L 483.40 910.00 L 484.20 911.50 L 484.50 913.80 L 484.30 916.20 L 483.50 918.60 L 482.40 921.00 L 480.90 923.20 L 479.10 925.10 L 477.10 926.50 Z M 490.00 917.80 L 490.00 903.30 L 563.10 861.10 L 563.10 875.60 L 490.00 917.80 Z M 576.10 869.50 L 574.00 870.30 L 572.30 870.40 L 570.90 870.00 L 569.80 869.00 L 569.00 867.50 L 568.70 865.20 L 568.90 862.80 L 569.70 860.30 L 570.80 857.90 L 572.30 855.70 L 574.10 853.80 L 576.00 852.40 L 578.20 851.60 L 579.80 851.40 L 581.30 851.90 L 582.40 852.90 L 583.10 854.40 L 583.50 856.60 L 583.20 859.00 L 582.50 861.50 L 581.30 863.90 L 579.80 866.10 L 578.00 868.00 L 576.10 869.50 Z" fill="#4c7891" fill-rule="nonzero" group-id="1,72" node-id="579" stroke="none" target-height="97.900024" target-width="126.20001" target-x="463.5" target-y="840.5"></path><path d="M 563.10 903.40 L 563.20 917.90 L 490.10 960.10 L 490.00 945.60 L 563.10 903.40 Z" fill="#d4dae8" fill-rule="nonzero" group-id="1,73" node-id="584" stroke="none" target-height="56.69995" target-width="73.20001" target-x="490" target-y="903.4"></path><path d="M 477.10 951.80 L 479.30 950.90 L 480.90 950.80 L 482.30 951.30 L 483.50 952.20 L 484.20 953.70 L 484.50 956.00 L 484.30 958.40 L 483.50 960.90 L 482.40 963.30 L 480.90 965.50 L 479.10 967.40 L 477.20 968.80 L 475.00 969.70 L 473.30 969.80 L 471.90 969.30 L 470.80 968.30 L 470.10 966.80 L 469.70 964.60 L 470.00 962.20 L 470.70 959.70 L 471.90 957.30 L 473.40 955.10 L 475.20 953.20 L 477.10 951.80 Z M 576.00 894.70 L 578.20 893.80 L 579.90 893.70 L 581.30 894.10 L 582.40 895.10 L 583.10 896.60 L 583.50 898.90 L 583.20 901.30 L 582.50 903.80 L 581.30 906.20 L 579.80 908.40 L 578.00 910.30 L 576.10 911.70 L 574.00 912.60 L 572.30 912.70 L 570.90 912.20 L 569.80 911.20 L 569.00 909.70 L 568.70 907.40 L 568.90 905.00 L 569.70 902.60 L 570.80 900.20 L 572.30 898.00 L 574.10 896.10 L 576.00 894.70 Z" fill="#f9bb4a" fill-rule="nonzero" group-id="1,74" node-id="589" stroke="none" target-height="76.099976" target-width="113.79999" target-x="469.7" target-y="893.7"></path><path d="M 589.60 892.00 L 589.60 882.80 L 463.50 955.70 L 463.50 980.60 L 589.70 907.80 L 589.60 892.00 Z M 477.10 968.80 L 475.00 969.70 L 473.30 969.80 L 471.90 969.30 L 470.80 968.30 L 470.00 966.80 L 469.70 964.50 L 470.00 962.10 L 470.70 959.70 L 471.90 957.30 L 473.40 955.10 L 475.20 953.20 L 477.10 951.80 L 479.30 950.90 L 480.90 950.80 L 482.30 951.20 L 483.40 952.20 L 484.20 953.70 L 484.50 956.00 L 484.30 958.40 L 483.50 960.90 L 482.40 963.30 L 480.90 965.50 L 479.10 967.40 L 477.10 968.80 Z M 563.10 917.80 L 490.00 960.10 L 490.00 945.60 L 563.10 903.40 L 563.10 917.80 Z M 576.10 911.70 L 574.00 912.50 L 572.30 912.70 L 570.90 912.20 L 569.70 911.20 L 569.00 909.70 L 568.70 907.50 L 568.90 905.00 L 569.70 902.60 L 572.30 898.00 L 574.10 896.10 L 576.00 894.70 L 578.20 893.80 L 579.80 893.70 L 581.30 894.10 L 582.40 895.10 L 583.10 896.60 L 583.50 898.90 L 583.20 901.30 L 582.50 903.80 L 581.30 906.20 L 579.80 908.40 L 578.00 910.30 L 576.10 911.70 Z" fill="#4c7891" fill-rule="nonzero" group-id="1,75" node-id="594" stroke="none" target-height="97.79999" target-width="126.20001" target-x="463.5" target-y="882.8"></path><path d="M 814.60 404.60 L 810.40 402.50 L 805.90 400.90 L 801.10 399.70 L 796.10 398.90 L 790.90 398.60 L 785.70 398.70 L 780.10 399.40 L 771.40 401.70 L 765.30 404.60 L 761.70 407.00 L 758.90 409.50 L 756.70 412.20 L 755.40 414.50 L 753.90 419.20 L 753.90 424.20 L 755.40 428.90 L 756.80 431.20 L 759.00 434.00 L 761.80 436.60 L 765.40 439.10 L 772.80 442.30 L 776.90 443.50 L 785.40 444.80 L 794.30 444.80 L 802.90 443.50 L 807.10 442.30 L 811.00 440.80 L 814.60 438.90 L 818.20 436.50 L 821.10 434.00 L 823.30 431.30 L 824.60 429.00 L 826.10 424.40 L 826.10 419.40 L 824.70 414.70 L 823.30 412.40 L 821.10 409.60 L 818.20 407.00 L 814.60 404.60 Z M 809.40 429.80 L 806.60 431.30 L 800.40 433.40 L 795.30 434.20 L 790.00 434.50 L 784.70 434.30 L 779.70 433.50 L 773.40 431.40 L 770.70 430.10 L 767.10 427.40 L 764.90 424.60 L 764.40 423.10 L 764.40 420.30 L 765.80 417.50 L 767.70 415.50 L 770.50 413.60 L 773.80 412.00 L 777.50 410.70 L 781.50 409.80 L 790.00 409.10 L 796.10 409.40 L 799.70 410.10 L 806.50 412.10 L 809.40 413.60 L 812.30 415.60 L 814.20 417.50 L 815.70 420.40 L 815.90 421.80 L 815.20 424.50 L 814.20 426.00 L 812.30 427.90 L 809.40 429.80 Z M 663.70 508.00 L 662.00 505.50 L 660.00 503.20 L 657.30 501.00 L 654.10 498.90 L 649.90 496.80 L 645.30 495.10 L 640.50 493.90 L 635.40 493.20 L 630.20 492.80 L 625.00 493.00 L 619.50 493.70 L 614.30 494.90 L 609.30 496.70 L 604.80 498.90 L 601.20 501.30 L 598.40 503.80 L 596.20 506.50 L 594.90 508.80 L 593.40 513.50 L 593.20 516.00 L 593.40 518.50 L 594.90 523.20 L 596.30 525.50 L 598.50 528.30 L 601.40 530.90 L 604.90 533.30 L 612.30 536.60 L 620.60 538.60 L 629.30 539.30 L 633.80 539.10 L 642.50 537.80 L 646.60 536.60 L 650.50 535.00 L 654.10 533.20 L 657.30 531.10 L 660.00 528.90 L 662.00 526.60 L 664.90 521.50 L 665.60 518.90 L 665.80 516.10 L 665.60 513.30 L 664.90 510.60 L 663.70 508.00 Z M 649.00 524.10 L 643.20 526.70 L 639.90 527.60 L 634.80 528.50 L 629.50 528.80 L 624.20 528.50 L 619.20 527.70 L 612.90 525.70 L 610.20 524.40 L 607.30 522.30 L 605.40 520.30 L 603.90 517.40 L 603.90 514.60 L 605.30 511.70 L 607.20 509.80 L 610.00 507.90 L 613.30 506.20 L 617.00 505.00 L 620.80 504.10 L 629.50 503.30 L 632.50 503.40 L 639.10 504.30 L 645.90 506.40 L 648.90 507.90 L 651.80 509.80 L 653.70 511.80 L 655.30 514.70 L 655.40 516.10 L 654.70 518.80 L 653.70 520.30 L 651.80 522.20 L 649.00 524.10 Z M 497.00 595.30 L 493.60 593.10 L 489.40 591.00 L 484.70 589.30 L 479.80 588.10 L 474.60 587.40 L 469.40 587.10 L 464.20 587.40 L 458.90 588.00 L 453.70 589.20 L 450.40 590.30 L 444.30 593.10 L 440.80 595.50 L 437.90 598.10 L 435.70 600.80 L 434.40 603.10 L 432.90 607.80 L 432.90 612.70 L 434.50 617.50 L 435.80 619.80 L 438.00 622.50 L 440.90 625.10 L 444.50 627.60 L 451.80 630.90 L 456.00 632.00 L 464.50 633.30 L 473.30 633.30 L 482.00 632.00 L 486.20 630.80 L 493.60 627.50 L 497.10 625.20 L 499.60 623.00 L 501.70 620.70 L 503.20 618.40 L 504.40 615.80 L 505.10 613.20 L 505.40 610.40 L 505.10 607.60 L 504.50 604.90 L 503.30 602.30 L 501.70 599.90 L 499.60 597.60 L 497.00 595.30 Z M 488.50 618.40 L 482.70 620.90 L 479.40 621.90 L 474.30 622.80 L 469.10 623.10 L 463.80 622.80 L 458.70 622.00 L 452.40 620.00 L 449.70 618.60 L 446.90 616.60 L 444.90 614.60 L 443.40 611.60 L 443.40 608.90 L 444.90 606.00 L 446.80 604.10 L 449.60 602.10 L 452.80 600.50 L 460.20 598.30 L 464.20 597.80 L 469.00 597.50 L 471.80 597.60 L 478.40 598.50 L 485.40 600.60 L 488.40 602.10 L 491.30 604.10 L 493.30 606.10 L 494.80 609.00 L 494.80 611.70 L 493.30 614.50 L 491.30 616.50 L 488.50 618.40 Z" fill="#37617b" fill-rule="nonzero" group-id="1,76" node-id="599" stroke="none" target-height="234.69998" target-width="393.19998" target-x="432.9" target-y="398.6"></path><path d="M 796.10 255.80 L 796.10 418.40 L 795.40 421.10 L 793.50 423.00 L 790.90 423.70 L 788.30 423.00 L 786.40 421.10 L 785.70 418.40 L 785.70 264.80 L 323.00 529.80 L 320.40 530.50 L 317.80 529.80 L 315.90 527.90 L 315.20 525.30 L 314.60 259.40 L 315.30 256.70 L 317.20 254.80 L 319.80 254.10 L 322.40 254.80 L 324.30 256.70 L 325.00 259.40 L 325.60 516.30 L 788.30 251.30 L 790.90 250.60 L 793.50 251.30 L 795.40 253.20 L 796.10 255.80 Z" fill="#bac1ce" fill-rule="nonzero" group-id="1,77" node-id="604" stroke="none" target-height="279.9" target-width="481.49997" target-x="314.6" target-y="250.6"></path><path d="M 635.40 350.30 L 635.40 512.90 L 635.20 514.40 L 633.80 516.60 L 631.60 518.00 L 630.20 518.20 L 627.60 517.50 L 625.70 515.60 L 625.20 514.40 L 625.00 350.30 L 625.20 348.90 L 626.50 346.60 L 628.80 345.30 L 630.20 345.10 L 631.60 345.30 L 633.80 346.60 L 635.20 348.90 L 635.40 350.30 Z M 474.60 444.90 L 474.60 607.50 L 474.40 608.90 L 473.10 611.20 L 470.80 612.50 L 469.40 612.70 L 468.00 612.50 L 465.70 611.20 L 464.40 608.90 L 464.20 607.50 L 464.20 444.90 L 464.40 443.40 L 465.70 441.20 L 468.00 439.90 L 469.40 439.70 L 471.00 440.00 L 472.50 440.70 L 473.60 441.70 L 474.30 443.10 L 474.60 444.90 Z M 413.40 94.20 L 502.00 145.70 L 497.30 143.30 L 492.40 141.40 L 487.10 140.10 L 481.50 139.30 L 475.60 139.10 L 469.90 139.50 L 463.80 140.40 L 457.50 141.90 L 450.80 144.10 L 443.80 147.00 L 355.20 95.50 L 362.20 92.60 L 368.90 90.40 L 375.30 88.90 L 381.30 88.00 L 387.00 87.70 L 393.00 87.90 L 398.50 88.60 L 403.80 90.00 L 408.70 91.80 L 413.40 94.20 Z" fill="#bac1ce" fill-rule="nonzero" group-id="1,78" node-id="609" stroke="none" target-height="525" target-width="280.2" target-x="355.2" target-y="87.7"></path><path d="M 413.60 52.80 L 408.50 50.30 L 403.20 48.20 L 397.40 46.70 L 391.30 45.80 L 385.20 45.40 L 378.80 45.70 L 372.10 46.50 L 364.90 48.00 L 358.10 50.10 L 350.90 52.80 L 343.40 56.20 L 335.50 60.40 L 328.70 64.60 L 315.30 74.30 L 308.60 79.80 L 300.20 87.60 L 292.10 96.00 L 284.20 105.00 L 276.70 114.40 L 269.70 124.20 L 263.00 134.50 L 256.80 145.00 L 251.10 155.80 L 245.90 166.80 L 241.20 178.00 L 237.10 189.30 L 233.70 200.50 L 185.80 172.60 L 189.30 161.40 L 193.30 150.20 L 198.00 139.00 L 203.20 128.00 L 208.90 117.20 L 215.10 106.70 L 221.80 96.50 L 228.90 86.70 L 236.30 77.30 L 244.20 68.30 L 252.40 59.90 L 260.80 52.10 L 267.40 46.60 L 280.80 36.90 L 287.60 32.70 L 295.50 28.50 L 303.00 25.10 L 310.20 22.40 L 317.00 20.30 L 324.20 18.80 L 331.00 17.90 L 337.40 17.60 L 343.40 18.00 L 349.50 18.90 L 355.30 20.40 L 360.70 22.40 L 365.70 25.00 L 413.60 52.80 Z" fill="#cad0dd" fill-rule="nonzero" group-id="1,79" node-id="614" stroke="none" target-height="182.9" target-width="227.8" target-x="185.8" target-y="17.6"></path><path d="M 102.50 400.50 L 54.60 372.70 L 53.30 362.50 L 52.70 351.30 L 52.90 343.70 L 53.50 336.00 L 54.60 328.10 L 56.10 320.00 L 58.60 309.40 L 61.80 298.80 L 65.70 288.10 L 70.20 277.60 L 75.10 267.20 L 80.70 257.10 L 86.80 247.20 L 93.20 237.70 L 100.10 228.50 L 107.50 219.80 L 115.10 211.70 L 123.10 204.20 L 129.30 198.80 L 135.60 193.90 L 142.10 189.50 L 148.60 185.50 L 155.30 181.90 L 161.70 178.90 L 167.90 176.60 L 174.20 174.70 L 180.20 173.40 L 185.90 172.70 L 233.70 200.50 L 228.10 201.20 L 222.10 202.50 L 215.80 204.40 L 209.60 206.70 L 203.10 209.70 L 196.40 213.30 L 189.90 217.30 L 183.50 221.70 L 177.20 226.60 L 170.90 232.00 L 163.00 239.50 L 155.30 247.60 L 148.00 256.40 L 141.10 265.50 L 134.60 275.00 L 128.60 284.90 L 123.00 295.00 L 118.00 305.40 L 113.60 315.90 L 109.70 326.60 L 106.50 337.30 L 103.90 347.80 L 102.40 355.90 L 101.40 363.80 L 100.80 371.50 L 100.70 384.90 L 101.10 390.30 L 102.50 400.50 Z" fill="#bac1ce" fill-rule="nonzero" group-id="1,80" node-id="619" stroke="none" target-height="227.8" target-width="181" target-x="52.7" target-y="172.7"></path><path d="M 335.60 60.50 L 343.10 56.40 L 350.40 53.10 L 357.30 50.40 L 363.90 48.30 L 370.20 46.90 L 376.90 45.90 L 383.30 45.40 L 389.30 45.60 L 395.00 46.20 L 400.40 47.40 L 405.80 49.10 L 410.80 51.30 L 415.50 54.00 L 420.00 57.20 L 424.20 60.90 L 428.00 65.00 L 431.40 69.60 L 434.50 74.70 L 437.40 80.30 L 439.90 86.50 L 441.80 92.70 L 443.40 99.40 L 444.50 106.70 L 445.30 114.60 L 445.50 128.90 L 444.60 140.80 L 443.80 147.00 L 455.50 142.50 L 466.20 140.00 L 471.30 139.30 L 476.50 139.10 L 481.50 139.30 L 486.20 140.00 L 490.70 141.00 L 495.00 142.40 L 499.20 144.20 L 503.20 146.40 L 506.90 149.00 L 510.40 151.90 L 513.70 155.30 L 516.60 158.90 L 519.30 162.90 L 521.80 167.30 L 524.00 172.10 L 525.90 177.40 L 527.70 184.00 L 529.10 191.20 L 530.00 199.10 L 530.30 207.80 L 530.10 215.50 L 529.50 223.30 L 528.40 231.30 L 526.90 239.40 L 524.40 250.10 L 521.20 260.80 L 517.20 271.60 L 512.80 282.20 L 507.70 292.60 L 502.20 302.90 L 496.10 312.90 L 489.50 322.40 L 482.60 331.60 L 475.20 340.40 L 467.50 348.60 L 459.50 356.20 L 453.20 361.60 L 446.80 366.50 L 440.40 370.90 L 433.80 375.00 L 134.50 547.80 L 128.10 551.20 L 122.00 553.80 L 116.20 555.80 L 110.70 557.10 L 105.00 557.90 L 99.70 558.10 L 94.70 557.70 L 90.00 556.70 L 85.40 555.20 L 81.10 553.10 L 77.20 550.50 L 73.60 547.40 L 70.40 543.80 L 67.50 539.80 L 65.00 535.10 L 62.80 529.80 L 61.20 524.40 L 59.90 518.50 L 59.20 511.90 L 58.90 504.70 L 59.10 498.10 L 60.60 484.70 L 62.00 477.70 L 64.40 468.60 L 67.30 459.40 L 70.90 450.20 L 75.00 441.30 L 79.60 432.50 L 84.70 423.90 L 90.30 415.70 L 96.20 407.90 L 102.50 400.50 L 101.10 390.30 L 100.60 379.10 L 100.80 371.50 L 101.40 363.80 L 102.40 355.90 L 103.90 347.80 L 106.50 337.30 L 109.70 326.60 L 113.60 315.90 L 118.00 305.40 L 123.00 295.00 L 128.60 284.90 L 134.60 275.00 L 141.10 265.50 L 148.00 256.40 L 155.30 247.60 L 163.00 239.50 L 170.90 232.00 L 177.20 226.60 L 183.50 221.70 L 189.90 217.30 L 196.40 213.30 L 203.10 209.70 L 209.60 206.70 L 215.80 204.40 L 222.10 202.50 L 228.10 201.20 L 233.70 200.50 L 237.20 189.20 L 241.20 178.00 L 245.90 166.80 L 251.10 155.80 L 256.80 145.00 L 263.00 134.50 L 269.60 124.20 L 276.70 114.40 L 284.20 105.00 L 292.10 96.00 L 300.20 87.60 L 308.60 79.90 L 315.30 74.40 L 321.90 69.30 L 328.70 64.70 L 335.60 60.50 Z" fill="#e4e8f4" fill-rule="nonzero" group-id="1,81" node-id="624" stroke="none" target-height="512.69995" target-width="471.4" target-x="58.9" target-y="45.4"></path><path d="M 234.60 256.70 L 286.90 310.40 L 263.60 323.80 L 263.80 399.30 L 206.20 432.60 L 205.90 357.10 L 182.60 370.60 L 234.60 256.70 Z" fill="#75ca75" fill-rule="nonzero" group-id="1,82" node-id="629" stroke="none" target-height="175.9" target-width="104.29999" target-x="182.6" target-y="256.7"></path><path d="M 383.10 170.90 L 383.40 246.20 L 406.60 232.80 L 354.60 346.80 L 302.40 293.00 L 325.60 279.60 L 325.40 204.30 L 383.10 170.90 Z" fill="#fa5168" fill-rule="nonzero" group-id="1,83" node-id="634" stroke="none" target-height="175.9" target-width="104.20001" target-x="302.4" target-y="170.9"></path><path d="M 922.80 877.00 L 922.70 901.80 L 905.60 914.60 L 905.60 889.70 L 922.80 877.00 Z M 766.30 892.10 L 766.30 916.90 L 745.60 901.80 L 745.70 877.00 L 766.30 892.10 Z" fill="#576cfb" fill-rule="nonzero" group-id="1,84" node-id="639" stroke="none" target-height="39.900024" target-width="177.20001" target-x="745.6" target-y="877"></path><path d="M 888.90 913.70 L 888.80 938.50 L 888.50 935.40 L 887.70 932.30 L 886.40 929.20 L 884.40 926.10 L 879.70 921.00 L 872.80 916.10 L 867.20 913.30 L 861.20 911.00 L 854.70 909.20 L 848.10 907.90 L 841.20 907.10 L 834.20 906.90 L 827.30 907.20 L 820.50 907.90 L 813.80 909.20 L 807.30 911.00 L 801.40 913.40 L 795.90 916.10 L 789.10 920.90 L 784.50 925.90 L 782.50 928.90 L 781.20 932.00 L 780.40 935.20 L 780.00 938.30 L 780.10 913.50 L 780.40 910.60 L 781.10 907.60 L 782.30 904.70 L 784.10 901.70 L 786.20 899.10 L 788.90 896.40 L 792.10 893.90 L 796.00 891.30 L 801.50 888.60 L 807.40 886.20 L 813.90 884.40 L 820.50 883.10 L 827.30 882.30 L 834.30 882.10 L 841.30 882.30 L 848.10 883.10 L 854.80 884.40 L 861.30 886.20 L 867.30 888.50 L 872.80 891.30 L 876.80 893.80 L 880.10 896.40 L 882.70 899.10 L 884.90 901.80 L 886.70 904.80 L 887.90 907.70 L 888.60 910.70 L 888.90 913.70 Z" fill="#4562ef" fill-rule="nonzero" group-id="1,85" node-id="644" stroke="none" target-height="56.400024" target-width="108.900024" target-x="780" target-y="882.1"></path><path d="M 727.40 923.90 L 727.30 948.70 L 727.40 923.90 Z" fill="#e4e8f4" fill-rule="nonzero" group-id="1,86" node-id="649" stroke="none" target-height="24.799988" target-width="0.10003662" target-x="727.3" target-y="923.9"></path><path d="M 941.80 924.00 L 941.70 948.90 L 912.00 950.80 L 912.00 926.00 L 941.80 924.00 Z M 762.80 926.50 L 762.80 951.30 L 727.30 948.70 L 727.40 923.90 L 762.80 926.50 Z" fill="#576cfb" fill-rule="nonzero" group-id="1,87" node-id="654" stroke="none" target-height="27.399963" target-width="214.5" target-x="727.3" target-y="923.9"></path><path d="M 768.30 933.80 L 768.20 958.60 L 766.10 956.20 L 762.80 951.30 L 762.80 926.50 L 766.10 931.30 L 768.30 933.80 Z M 912.00 926.00 L 912.00 950.80 L 909.90 954.20 L 907.30 957.50 L 904.10 960.80 L 904.20 936.00 L 907.40 932.70 L 910.00 929.40 L 912.00 926.00 Z M 812.50 955.10 L 812.40 980.00 L 806.10 978.60 L 799.80 976.80 L 799.90 952.00 L 806.00 953.80 L 812.50 955.10 Z M 871.80 953.00 L 871.70 977.80 L 864.30 979.70 L 856.70 980.90 L 856.80 956.10 L 864.40 954.80 L 871.80 953.00 Z M 923.20 950.10 L 923.10 975.00 L 897.90 989.70 L 897.90 964.80 L 923.20 950.10 Z" fill="#4562ef" fill-rule="nonzero" group-id="1,88" node-id="659" stroke="none" target-height="63.700012" target-width="160.40002" target-x="762.8" target-y="926"></path><path d="M 897.90 964.80 L 897.90 989.70 L 871.70 977.80 L 871.80 953.00 L 897.90 964.80 Z" fill="#576cfb" fill-rule="nonzero" group-id="1,89" node-id="664" stroke="none" target-height="36.700012" target-width="26.200012" target-x="871.7" target-y="953"></path><path d="M 771.60 964.80 L 771.50 989.70 L 746.10 975.00 L 746.10 950.10 L 771.60 964.80 Z" fill="#4562ef" fill-rule="nonzero" group-id="1,90" node-id="669" stroke="none" target-height="39.600037" target-width="25.5" target-x="746.1" target-y="950.1"></path><path d="M 799.90 952.00 L 799.80 976.80 L 771.50 989.70 L 771.60 964.80 L 799.90 952.00 Z M 856.80 956.10 L 856.70 980.90 L 852.90 1000.50 L 852.90 975.70 L 856.80 956.10 Z M 817.00 975.60 L 816.90 1000.40 L 812.40 980.00 L 812.50 955.10 L 817.00 975.60 Z" fill="#576cfb" fill-rule="nonzero" group-id="1,91" node-id="674" stroke="none" target-height="48.5" target-width="85.29999" target-x="771.5" target-y="952"></path><path d="M 904.20 936.00 L 907.40 932.70 L 910.00 929.40 L 912.10 926.00 L 941.80 924.00 L 941.60 903.20 L 913.50 901.20 L 912.20 898.30 L 910.40 895.30 L 905.70 889.80 L 922.80 877.00 L 897.40 862.30 L 875.40 872.30 L 865.80 869.60 L 855.60 867.80 L 852.00 851.40 L 816.10 851.50 L 812.70 868.70 L 806.70 869.90 L 795.50 873.30 L 771.00 862.30 L 745.70 877.00 L 766.40 892.10 L 764.00 895.10 L 761.00 900.70 L 727.30 903.10 L 727.40 923.90 L 762.80 926.40 L 765.20 930.20 L 768.30 933.70 L 746.20 950.10 L 771.60 964.80 L 799.90 952.00 L 806.10 953.80 L 812.50 955.10 L 817.00 975.60 L 852.90 975.70 L 856.80 956.10 L 864.40 954.80 L 871.80 953.00 L 897.90 964.80 L 923.20 950.10 L 904.20 936.00 Z M 884.40 926.10 L 879.80 931.00 L 873.10 935.80 L 867.60 938.60 L 861.60 940.90 L 855.10 942.70 L 848.50 944.00 L 841.60 944.80 L 834.60 945.00 L 827.60 944.80 L 820.80 944.00 L 814.20 942.70 L 807.60 940.90 L 801.70 938.60 L 796.10 935.80 L 789.20 930.90 L 784.50 925.90 L 782.50 922.80 L 781.20 919.70 L 780.40 916.60 L 780.10 913.50 L 780.40 910.60 L 781.10 907.60 L 782.30 904.70 L 784.10 901.70 L 786.20 899.10 L 788.90 896.40 L 792.10 893.90 L 796.00 891.30 L 801.50 888.60 L 807.40 886.20 L 813.90 884.40 L 820.50 883.10 L 827.30 882.30 L 834.30 882.10 L 841.30 882.30 L 848.10 883.10 L 854.80 884.40 L 861.30 886.20 L 867.30 888.50 L 872.80 891.30 L 876.80 893.80 L 880.10 896.40 L 882.70 899.10 L 884.90 901.80 L 886.70 904.80 L 887.90 907.70 L 888.60 910.70 L 888.90 913.70 L 888.60 916.90 L 887.70 920.00 L 886.40 923.10 L 884.40 926.10 Z" fill="#748bfd" fill-rule="nonzero" group-id="1,92" node-id="679" stroke="none" target-height="124.29999" target-width="214.5" target-x="727.3" target-y="851.4"></path><path d="M 852.90 975.70 L 852.90 1000.50 L 816.90 1000.40 L 817.00 975.60 L 852.90 975.70 Z" fill="#4562ef" fill-rule="nonzero" group-id="1,93" node-id="684" stroke="none" target-height="24.900024" target-width="36" target-x="816.9" target-y="975.6"></path><path d="M 999.30 782.00 L 999.30 799.00 L 987.50 807.70 L 987.60 790.80 L 999.30 782.00 Z M 892.40 792.40 L 892.40 809.40 L 878.30 799.00 L 878.30 782.00 L 892.40 792.40 Z" fill="#fa5168" fill-rule="nonzero" group-id="1,94" node-id="689" stroke="none" target-height="27.400024" target-width="121" target-x="878.3" target-y="782"></path><path d="M 976.10 807.20 L 976.10 824.10 L 975.40 819.90 L 973.00 815.60 L 971.10 813.30 L 968.50 811.00 L 965.10 808.80 L 961.40 806.90 L 957.30 805.30 L 952.80 804.10 L 943.60 802.70 L 938.90 802.50 L 934.10 802.70 L 924.90 804.10 L 920.40 805.30 L 916.40 806.90 L 912.60 808.80 L 909.30 811.00 L 906.80 813.30 L 904.90 815.50 L 902.60 819.70 L 901.80 824.00 L 902.00 805.10 L 903.10 801.60 L 904.30 799.50 L 907.00 796.10 L 912.70 791.80 L 916.40 789.90 L 920.50 788.40 L 924.90 787.10 L 934.10 785.70 L 943.70 785.70 L 952.90 787.10 L 957.30 788.40 L 961.40 789.90 L 967.80 793.50 L 971.80 797.10 L 974.40 800.80 L 975.30 802.80 L 976.10 807.20 Z" fill="#f34858" fill-rule="nonzero" group-id="1,95" node-id="694" stroke="none" target-height="38.399963" target-width="74.29999" target-x="901.8" target-y="785.7"></path><path d="M 865.80 814.10 L 865.70 799.90 Z" fill="#e4e8f4" fill-rule="nonzero" group-id="1,96" node-id="699" stroke="none" target-height="14.199951" target-width="0.099975586" target-x="865.7" target-y="799.9"></path><path d="M 1012.30 814.20 L 1012.20 831.20 L 991.90 832.50 L 992.00 815.50 L 1012.30 814.20 Z M 890.10 815.90 L 890.00 832.80 L 865.80 831.00 L 865.80 814.10 L 890.10 815.90 Z" fill="#fa5168" fill-rule="nonzero" group-id="1,97" node-id="704" stroke="none" target-height="18.700012" target-width="146.5" target-x="865.8" target-y="814.1"></path><path d="M 893.80 820.80 L 893.70 837.80 L 891.70 835.40 L 890.00 832.80 L 890.10 815.90 L 891.60 818.40 L 893.80 820.80 Z M 992.00 815.50 L 991.90 832.50 L 988.70 837.10 L 986.50 839.30 L 986.60 822.40 L 988.80 820.10 L 992.00 815.50 Z M 924.00 835.40 L 923.90 852.40 L 919.60 851.50 L 915.30 850.20 L 915.40 833.30 L 924.00 835.40 Z M 964.50 834.00 L 964.40 850.90 L 959.30 852.20 L 954.20 853.00 L 954.20 836.10 L 959.40 835.20 L 964.50 834.00 Z M 999.60 832.00 L 999.50 849.00 L 982.30 859.00 L 982.30 842.10 L 999.60 832.00 Z" fill="#f34858" fill-rule="nonzero" group-id="1,98" node-id="709" stroke="none" target-height="43.5" target-width="109.599976" target-x="890" target-y="815.5"></path><path d="M 982.30 842.10 L 982.30 859.00 L 964.40 850.90 L 964.50 834.00 L 982.30 842.10 Z" fill="#fa5168" fill-rule="nonzero" group-id="1,99" node-id="714" stroke="none" target-height="25" target-width="17.899963" target-x="964.4" target-y="834"></path><path d="M 896.00 842.10 L 896.00 859.00 L 878.60 849.00 L 878.60 832.00 L 896.00 842.10 Z" fill="#f34858" fill-rule="nonzero" group-id="1,100" node-id="719" stroke="none" target-height="27" target-width="17.400024" target-x="878.6" target-y="832"></path><path d="M 915.40 833.30 L 915.30 850.20 L 896.00 859.00 L 896.00 842.10 L 915.40 833.30 Z M 954.20 836.10 L 954.20 853.00 L 951.50 866.40 L 951.60 849.50 L 954.20 836.10 Z M 927.00 849.40 L 927.00 866.40 L 923.90 852.40 L 924.00 835.40 L 927.00 849.40 Z" fill="#fa5168" fill-rule="nonzero" group-id="1,101" node-id="724" stroke="none" target-height="33.100037" target-width="58.200012" target-x="896" target-y="833.3"></path><path d="M 986.60 822.30 L 988.80 820.10 L 992.00 815.50 L 1012.30 814.20 L 1012.20 800.00 L 992.90 798.60 L 991.70 796.00 L 989.90 793.40 L 987.60 790.70 L 999.30 782.10 L 982.00 772.00 L 966.90 778.90 L 962.50 777.50 L 953.40 775.80 L 951.00 764.60 L 926.50 764.60 L 924.10 776.40 L 918.00 777.70 L 912.40 779.50 L 895.70 772.00 L 878.40 782.10 L 892.50 792.40 L 890.90 794.40 L 888.80 798.30 L 865.70 799.90 L 865.80 814.10 L 890.00 815.80 L 891.70 818.40 L 893.80 820.80 L 878.60 832.00 L 896.00 842.10 L 915.40 833.30 L 924.00 835.50 L 927.00 849.50 L 951.60 849.50 L 954.20 836.10 L 959.40 835.20 L 964.40 834.00 L 982.30 842.10 L 999.50 832.00 L 986.60 822.30 Z M 973.00 815.60 L 971.10 817.90 L 968.60 820.10 L 965.30 822.20 L 961.60 824.10 L 957.50 825.70 L 953.10 827.00 L 943.90 828.30 L 939.10 828.50 L 934.30 828.30 L 925.10 827.00 L 920.60 825.70 L 916.50 824.10 L 912.80 822.20 L 909.50 820.00 L 906.90 817.80 L 904.90 815.50 L 902.60 811.30 L 901.80 807.10 L 902.30 803.70 L 904.30 799.50 L 907.00 796.10 L 912.70 791.80 L 916.40 789.90 L 920.50 788.40 L 924.90 787.10 L 934.10 785.70 L 938.90 785.50 L 943.70 785.70 L 952.90 787.10 L 957.30 788.40 L 961.40 789.90 L 965.10 791.80 L 969.90 795.20 L 971.80 797.10 L 973.80 799.80 L 975.30 802.80 L 976.10 807.20 L 975.40 811.40 L 973.00 815.60 Z" fill="#f9607f" fill-rule="nonzero" group-id="1,102" node-id="729" stroke="none" target-height="84.900024" target-width="146.59998" target-x="865.7" target-y="764.6"></path><path d="M 927.10 866.50 L 927.20 849.50 L 951.70 849.60 L 951.70 866.60 L 927.10 866.50 Z" fill="#f34858" fill-rule="nonzero" group-id="1,103" node-id="734" stroke="none" target-height="17.099976" target-width="24.600037" target-x="927.1" target-y="849.5"></path></g></g></svg>